%TF.GenerationSoftware,KiCad,Pcbnew,9.0.0*%
%TF.CreationDate,2025-04-22T08:41:44+02:00*%
%TF.ProjectId,Jornada_keyboard_USB,4a6f726e-6164-4615-9f6b-6579626f6172,rev?*%
%TF.SameCoordinates,Original*%
%TF.FileFunction,Copper,L1,Top*%
%TF.FilePolarity,Positive*%
%FSLAX46Y46*%
G04 Gerber Fmt 4.6, Leading zero omitted, Abs format (unit mm)*
G04 Created by KiCad (PCBNEW 9.0.0) date 2025-04-22 08:41:44*
%MOMM*%
%LPD*%
G01*
G04 APERTURE LIST*
G04 Aperture macros list*
%AMRoundRect*
0 Rectangle with rounded corners*
0 $1 Rounding radius*
0 $2 $3 $4 $5 $6 $7 $8 $9 X,Y pos of 4 corners*
0 Add a 4 corners polygon primitive as box body*
4,1,4,$2,$3,$4,$5,$6,$7,$8,$9,$2,$3,0*
0 Add four circle primitives for the rounded corners*
1,1,$1+$1,$2,$3*
1,1,$1+$1,$4,$5*
1,1,$1+$1,$6,$7*
1,1,$1+$1,$8,$9*
0 Add four rect primitives between the rounded corners*
20,1,$1+$1,$2,$3,$4,$5,0*
20,1,$1+$1,$4,$5,$6,$7,0*
20,1,$1+$1,$6,$7,$8,$9,0*
20,1,$1+$1,$8,$9,$2,$3,0*%
G04 Aperture macros list end*
%ADD10C,0.250000*%
%TA.AperFunction,SMDPad,CuDef*%
%ADD11R,2.100000X1.800000*%
%TD*%
%TA.AperFunction,SMDPad,CuDef*%
%ADD12R,0.550000X1.500000*%
%TD*%
%TA.AperFunction,SMDPad,CuDef*%
%ADD13R,1.500000X0.550000*%
%TD*%
%TA.AperFunction,SMDPad,CuDef*%
%ADD14RoundRect,0.250000X-0.312500X-0.625000X0.312500X-0.625000X0.312500X0.625000X-0.312500X0.625000X0*%
%TD*%
%TA.AperFunction,SMDPad,CuDef*%
%ADD15RoundRect,0.250000X0.312500X0.625000X-0.312500X0.625000X-0.312500X-0.625000X0.312500X-0.625000X0*%
%TD*%
%TA.AperFunction,SMDPad,CuDef*%
%ADD16RoundRect,0.250000X-0.250000X-0.750000X0.250000X-0.750000X0.250000X0.750000X-0.250000X0.750000X0*%
%TD*%
%TA.AperFunction,SMDPad,CuDef*%
%ADD17RoundRect,0.250000X0.625000X-0.312500X0.625000X0.312500X-0.625000X0.312500X-0.625000X-0.312500X0*%
%TD*%
%TA.AperFunction,SMDPad,CuDef*%
%ADD18RoundRect,0.250000X-0.325000X-0.650000X0.325000X-0.650000X0.325000X0.650000X-0.325000X0.650000X0*%
%TD*%
%TA.AperFunction,SMDPad,CuDef*%
%ADD19R,1.400000X0.400000*%
%TD*%
%TA.AperFunction,SMDPad,CuDef*%
%ADD20R,1.900000X2.300000*%
%TD*%
%TA.AperFunction,SMDPad,CuDef*%
%ADD21R,1.900000X1.800000*%
%TD*%
%TA.AperFunction,SMDPad,CuDef*%
%ADD22R,0.610000X2.000000*%
%TD*%
%TA.AperFunction,SMDPad,CuDef*%
%ADD23R,2.680000X3.600000*%
%TD*%
%TA.AperFunction,SMDPad,CuDef*%
%ADD24RoundRect,0.140000X-0.140000X-0.170000X0.140000X-0.170000X0.140000X0.170000X-0.140000X0.170000X0*%
%TD*%
%TA.AperFunction,SMDPad,CuDef*%
%ADD25RoundRect,0.250000X-0.650000X0.325000X-0.650000X-0.325000X0.650000X-0.325000X0.650000X0.325000X0*%
%TD*%
%TA.AperFunction,SMDPad,CuDef*%
%ADD26RoundRect,0.250000X-0.625000X0.375000X-0.625000X-0.375000X0.625000X-0.375000X0.625000X0.375000X0*%
%TD*%
%TA.AperFunction,SMDPad,CuDef*%
%ADD27R,0.600000X0.560000*%
%TD*%
%TA.AperFunction,SMDPad,CuDef*%
%ADD28R,1.300000X1.550000*%
%TD*%
%TA.AperFunction,SMDPad,CuDef*%
%ADD29RoundRect,0.250000X0.325000X0.650000X-0.325000X0.650000X-0.325000X-0.650000X0.325000X-0.650000X0*%
%TD*%
%TA.AperFunction,SMDPad,CuDef*%
%ADD30RoundRect,0.140000X0.170000X-0.140000X0.170000X0.140000X-0.170000X0.140000X-0.170000X-0.140000X0*%
%TD*%
%TA.AperFunction,SMDPad,CuDef*%
%ADD31RoundRect,0.218750X0.256250X-0.218750X0.256250X0.218750X-0.256250X0.218750X-0.256250X-0.218750X0*%
%TD*%
%TA.AperFunction,Conductor*%
%ADD32C,0.400000*%
%TD*%
%TA.AperFunction,Conductor*%
%ADD33C,0.200000*%
%TD*%
%TA.AperFunction,Conductor*%
%ADD34C,0.440000*%
%TD*%
G04 APERTURE END LIST*
D10*
G36*
X24952526Y-22819635D02*
G01*
X24971458Y-22838568D01*
X24996809Y-22889269D01*
X24996809Y-23068094D01*
X24770619Y-23068094D01*
X24770619Y-22889269D01*
X24795969Y-22838567D01*
X24814902Y-22819635D01*
X24865604Y-22794285D01*
X24901825Y-22794285D01*
X24952526Y-22819635D01*
G37*
G36*
X25476336Y-22772017D02*
G01*
X25495268Y-22790949D01*
X25520619Y-22841650D01*
X25520619Y-23068094D01*
X25246809Y-23068094D01*
X25246809Y-22880044D01*
X25278681Y-22784426D01*
X25291092Y-22772016D01*
X25341794Y-22746666D01*
X25425634Y-22746666D01*
X25476336Y-22772017D01*
G37*
G36*
X23866392Y-22581541D02*
G01*
X23885324Y-22600473D01*
X23910675Y-22651174D01*
X23910675Y-22735014D01*
X23885324Y-22785715D01*
X23866392Y-22804648D01*
X23815690Y-22829999D01*
X23588993Y-22829999D01*
X23538291Y-22804648D01*
X23519358Y-22785716D01*
X23494008Y-22735015D01*
X23494008Y-22651174D01*
X23519358Y-22600472D01*
X23538291Y-22581540D01*
X23588993Y-22556190D01*
X23815690Y-22556190D01*
X23866392Y-22581541D01*
G37*
G36*
X25000145Y-21772016D02*
G01*
X25019077Y-21790949D01*
X25044428Y-21841650D01*
X25044428Y-22068094D01*
X24770619Y-22068094D01*
X24770619Y-21841650D01*
X24795969Y-21790948D01*
X24814902Y-21772016D01*
X24865604Y-21746666D01*
X24949444Y-21746666D01*
X25000145Y-21772016D01*
G37*
G36*
X25363896Y-20787225D02*
G01*
X25428715Y-20819635D01*
X25488746Y-20879666D01*
X25520619Y-20975284D01*
X25520619Y-21068094D01*
X24770619Y-21068094D01*
X24770619Y-20975282D01*
X24802491Y-20879664D01*
X24862519Y-20819636D01*
X24927342Y-20787225D01*
X25089579Y-20746666D01*
X25201658Y-20746666D01*
X25363896Y-20787225D01*
G37*
G36*
X23910675Y-20354061D02*
G01*
X23894886Y-20385637D01*
X23863308Y-20401427D01*
X23827088Y-20401427D01*
X23795510Y-20385638D01*
X23779722Y-20354062D01*
X23779722Y-20175237D01*
X23910675Y-20175237D01*
X23910675Y-20354061D01*
G37*
G36*
X23910675Y-19401680D02*
G01*
X23885324Y-19452381D01*
X23866392Y-19471314D01*
X23815690Y-19496665D01*
X23588993Y-19496665D01*
X23538291Y-19471314D01*
X23519358Y-19452382D01*
X23494008Y-19401681D01*
X23494008Y-19270475D01*
X23910675Y-19270475D01*
X23910675Y-19401680D01*
G37*
G36*
X23910675Y-18544537D02*
G01*
X23894886Y-18576113D01*
X23863308Y-18591903D01*
X23827088Y-18591903D01*
X23795510Y-18576114D01*
X23779722Y-18544538D01*
X23779722Y-18365713D01*
X23910675Y-18365713D01*
X23910675Y-18544537D01*
G37*
G36*
X25895619Y-24443094D02*
G01*
X22788077Y-24443094D01*
X22788077Y-23359185D01*
X22913077Y-23359185D01*
X22913077Y-23407957D01*
X22931741Y-23453017D01*
X22966229Y-23487505D01*
X23011289Y-23506169D01*
X23035675Y-23508571D01*
X23729677Y-23508571D01*
X23825293Y-23540443D01*
X23878802Y-23593952D01*
X23910675Y-23689570D01*
X23910675Y-23764523D01*
X23913077Y-23788909D01*
X23931741Y-23833969D01*
X23966229Y-23868457D01*
X24011289Y-23887121D01*
X24060061Y-23887121D01*
X24105121Y-23868457D01*
X24139609Y-23833969D01*
X24158273Y-23788909D01*
X24160675Y-23764523D01*
X24160675Y-23669285D01*
X24159459Y-23656941D01*
X24159693Y-23653650D01*
X24158708Y-23649320D01*
X24158273Y-23644899D01*
X24157009Y-23641849D01*
X24154260Y-23629756D01*
X24143434Y-23597279D01*
X24523021Y-23597279D01*
X24523021Y-23646053D01*
X24541686Y-23691112D01*
X24557231Y-23710054D01*
X24915270Y-24068094D01*
X24645619Y-24068094D01*
X24621233Y-24070496D01*
X24576173Y-24089160D01*
X24541685Y-24123648D01*
X24523021Y-24168708D01*
X24523021Y-24217480D01*
X24541685Y-24262540D01*
X24576173Y-24297028D01*
X24621233Y-24315692D01*
X24645619Y-24318094D01*
X25645619Y-24318094D01*
X25670005Y-24315692D01*
X25715065Y-24297028D01*
X25749553Y-24262540D01*
X25768217Y-24217480D01*
X25768217Y-24168708D01*
X25749553Y-24123648D01*
X25715065Y-24089160D01*
X25670005Y-24070496D01*
X25645619Y-24068094D01*
X25268824Y-24068094D01*
X25264491Y-24063761D01*
X25720619Y-23721666D01*
X25738687Y-23705113D01*
X25763536Y-23663146D01*
X25770434Y-23614862D01*
X25758329Y-23567616D01*
X25729066Y-23528598D01*
X25687099Y-23503749D01*
X25638816Y-23496851D01*
X25591569Y-23508956D01*
X25570619Y-23521666D01*
X25085919Y-23885189D01*
X24734007Y-23533278D01*
X24715065Y-23517733D01*
X24670006Y-23499068D01*
X24621232Y-23499068D01*
X24576173Y-23517733D01*
X24541686Y-23552220D01*
X24523021Y-23597279D01*
X24143434Y-23597279D01*
X24106641Y-23486900D01*
X24096651Y-23464525D01*
X24093708Y-23461132D01*
X24091989Y-23456981D01*
X24076444Y-23438039D01*
X23981205Y-23342801D01*
X23962263Y-23327256D01*
X23958111Y-23325536D01*
X23954720Y-23322595D01*
X23932345Y-23312604D01*
X23789488Y-23264986D01*
X23777397Y-23262236D01*
X23774346Y-23260973D01*
X23769923Y-23260537D01*
X23765594Y-23259553D01*
X23762303Y-23259786D01*
X23749960Y-23258571D01*
X23035675Y-23258571D01*
X23011289Y-23260973D01*
X22966229Y-23279637D01*
X22931741Y-23314125D01*
X22913077Y-23359185D01*
X22788077Y-23359185D01*
X22788077Y-22621666D01*
X23244008Y-22621666D01*
X23244008Y-22764523D01*
X23246410Y-22788909D01*
X23248128Y-22793057D01*
X23248447Y-22797539D01*
X23257205Y-22820425D01*
X23304823Y-22915662D01*
X23311432Y-22926160D01*
X23312694Y-22929207D01*
X23315509Y-22932638D01*
X23317878Y-22936400D01*
X23320372Y-22938563D01*
X23328239Y-22948149D01*
X23375857Y-22995768D01*
X23385445Y-23003637D01*
X23387607Y-23006129D01*
X23391364Y-23008494D01*
X23394799Y-23011313D01*
X23397849Y-23012576D01*
X23408344Y-23019183D01*
X23503582Y-23066802D01*
X23526468Y-23075560D01*
X23530948Y-23075878D01*
X23535098Y-23077597D01*
X23559484Y-23079999D01*
X23845198Y-23079999D01*
X23869584Y-23077597D01*
X23873732Y-23075878D01*
X23878214Y-23075560D01*
X23901100Y-23066802D01*
X23996337Y-23019184D01*
X24006833Y-23012576D01*
X24009881Y-23011314D01*
X24013314Y-23008496D01*
X24017075Y-23006129D01*
X24019238Y-23003634D01*
X24028823Y-22995769D01*
X24076443Y-22948150D01*
X24084312Y-22938561D01*
X24086805Y-22936400D01*
X24089168Y-22932645D01*
X24091989Y-22929209D01*
X24093253Y-22926155D01*
X24099859Y-22915663D01*
X24127810Y-22859761D01*
X24520619Y-22859761D01*
X24520619Y-23193094D01*
X24523021Y-23217480D01*
X24541685Y-23262540D01*
X24576173Y-23297028D01*
X24621233Y-23315692D01*
X24645619Y-23318094D01*
X25645619Y-23318094D01*
X25670005Y-23315692D01*
X25715065Y-23297028D01*
X25749553Y-23262540D01*
X25768217Y-23217480D01*
X25770619Y-23193094D01*
X25770619Y-22812142D01*
X25768217Y-22787756D01*
X25766498Y-22783606D01*
X25766180Y-22779126D01*
X25757422Y-22756240D01*
X25709803Y-22661002D01*
X25703197Y-22650509D01*
X25701933Y-22647456D01*
X25699112Y-22644019D01*
X25696749Y-22640265D01*
X25694256Y-22638103D01*
X25686387Y-22628515D01*
X25638767Y-22580896D01*
X25629182Y-22573030D01*
X25627019Y-22570536D01*
X25623258Y-22568168D01*
X25619825Y-22565351D01*
X25616777Y-22564088D01*
X25606281Y-22557481D01*
X25511044Y-22509863D01*
X25488158Y-22501105D01*
X25483676Y-22500786D01*
X25479528Y-22499068D01*
X25455142Y-22496666D01*
X25312285Y-22496666D01*
X25287899Y-22499068D01*
X25283749Y-22500786D01*
X25279269Y-22501105D01*
X25256383Y-22509863D01*
X25161145Y-22557482D01*
X25150650Y-22564088D01*
X25147600Y-22565352D01*
X25144165Y-22568170D01*
X25140408Y-22570536D01*
X25138246Y-22573027D01*
X25128658Y-22580897D01*
X25096328Y-22613226D01*
X25096017Y-22612971D01*
X25092970Y-22611709D01*
X25082472Y-22605100D01*
X24987235Y-22557482D01*
X24964349Y-22548724D01*
X24959867Y-22548405D01*
X24955719Y-22546687D01*
X24931333Y-22544285D01*
X24836095Y-22544285D01*
X24811709Y-22546687D01*
X24807559Y-22548405D01*
X24803079Y-22548724D01*
X24780193Y-22557482D01*
X24684955Y-22605101D01*
X24674460Y-22611707D01*
X24671410Y-22612971D01*
X24667975Y-22615789D01*
X24664218Y-22618155D01*
X24662056Y-22620646D01*
X24652468Y-22628516D01*
X24604850Y-22676135D01*
X24596983Y-22685720D01*
X24594489Y-22687884D01*
X24592120Y-22691645D01*
X24589305Y-22695077D01*
X24588043Y-22698123D01*
X24581434Y-22708622D01*
X24533816Y-22803859D01*
X24525058Y-22826745D01*
X24524739Y-22831226D01*
X24523021Y-22835375D01*
X24520619Y-22859761D01*
X24127810Y-22859761D01*
X24147478Y-22820425D01*
X24156236Y-22797539D01*
X24156554Y-22793058D01*
X24158273Y-22788909D01*
X24160675Y-22764523D01*
X24160675Y-22621666D01*
X24158273Y-22597280D01*
X24156554Y-22593130D01*
X24156236Y-22588650D01*
X24147478Y-22565764D01*
X24099859Y-22470526D01*
X24093253Y-22460033D01*
X24091989Y-22456980D01*
X24089168Y-22453543D01*
X24086805Y-22449789D01*
X24084312Y-22447627D01*
X24076443Y-22438039D01*
X24028823Y-22390420D01*
X24019238Y-22382554D01*
X24017075Y-22380060D01*
X24013314Y-22377692D01*
X24009881Y-22374875D01*
X24006833Y-22373612D01*
X23996337Y-22367005D01*
X23901100Y-22319387D01*
X23878214Y-22310629D01*
X23873732Y-22310310D01*
X23869584Y-22308592D01*
X23845198Y-22306190D01*
X23559484Y-22306190D01*
X23535098Y-22308592D01*
X23530948Y-22310310D01*
X23526468Y-22310629D01*
X23503582Y-22319387D01*
X23408344Y-22367006D01*
X23397849Y-22373612D01*
X23394799Y-22374876D01*
X23391364Y-22377694D01*
X23387607Y-22380060D01*
X23385445Y-22382551D01*
X23375857Y-22390421D01*
X23328239Y-22438040D01*
X23320372Y-22447625D01*
X23317878Y-22449789D01*
X23315509Y-22453550D01*
X23312694Y-22456982D01*
X23311432Y-22460028D01*
X23304823Y-22470527D01*
X23257205Y-22565764D01*
X23248447Y-22588650D01*
X23248128Y-22593131D01*
X23246410Y-22597280D01*
X23244008Y-22621666D01*
X22788077Y-22621666D01*
X22788077Y-21716904D01*
X23244008Y-21716904D01*
X23244008Y-21812142D01*
X23246410Y-21836528D01*
X23248128Y-21840676D01*
X23248447Y-21845158D01*
X23257205Y-21868044D01*
X23281537Y-21916708D01*
X23265074Y-21933172D01*
X23246410Y-21978232D01*
X23246410Y-22027004D01*
X23265074Y-22072064D01*
X23299562Y-22106552D01*
X23344622Y-22125216D01*
X23369008Y-22127618D01*
X24035675Y-22127618D01*
X24060061Y-22125216D01*
X24105121Y-22106552D01*
X24139609Y-22072064D01*
X24158273Y-22027004D01*
X24158273Y-21978232D01*
X24139609Y-21933172D01*
X24105121Y-21898684D01*
X24060061Y-21880020D01*
X24035675Y-21877618D01*
X23588993Y-21877618D01*
X23538291Y-21852267D01*
X23519358Y-21833335D01*
X23508762Y-21812142D01*
X24520619Y-21812142D01*
X24520619Y-22193094D01*
X24523021Y-22217480D01*
X24541685Y-22262540D01*
X24576173Y-22297028D01*
X24621233Y-22315692D01*
X24645619Y-22318094D01*
X25645619Y-22318094D01*
X25670005Y-22315692D01*
X25715065Y-22297028D01*
X25749553Y-22262540D01*
X25768217Y-22217480D01*
X25768217Y-22168708D01*
X25749553Y-22123648D01*
X25715065Y-22089160D01*
X25670005Y-22070496D01*
X25645619Y-22068094D01*
X25294428Y-22068094D01*
X25294428Y-22020081D01*
X25717302Y-21724070D01*
X25735902Y-21708118D01*
X25762114Y-21666987D01*
X25770590Y-21618956D01*
X25760040Y-21571338D01*
X25732071Y-21531383D01*
X25690941Y-21505171D01*
X25642909Y-21496695D01*
X25595292Y-21507245D01*
X25573936Y-21519262D01*
X25269347Y-21732473D01*
X25233612Y-21661002D01*
X25227005Y-21650507D01*
X25225742Y-21647457D01*
X25222923Y-21644022D01*
X25220558Y-21640265D01*
X25218066Y-21638103D01*
X25210197Y-21628515D01*
X25162578Y-21580897D01*
X25152992Y-21573030D01*
X25150829Y-21570536D01*
X25147067Y-21568167D01*
X25143636Y-21565352D01*
X25140589Y-21564090D01*
X25130091Y-21557481D01*
X25034854Y-21509863D01*
X25011968Y-21501105D01*
X25007486Y-21500786D01*
X25003338Y-21499068D01*
X24978952Y-21496666D01*
X24836095Y-21496666D01*
X24811709Y-21499068D01*
X24807559Y-21500786D01*
X24803079Y-21501105D01*
X24780193Y-21509863D01*
X24684955Y-21557482D01*
X24674460Y-21564088D01*
X24671410Y-21565352D01*
X24667975Y-21568170D01*
X24664218Y-21570536D01*
X24662056Y-21573027D01*
X24652468Y-21580897D01*
X24604850Y-21628516D01*
X24596983Y-21638101D01*
X24594489Y-21640265D01*
X24592120Y-21644026D01*
X24589305Y-21647458D01*
X24588043Y-21650504D01*
X24581434Y-21661003D01*
X24533816Y-21756240D01*
X24525058Y-21779126D01*
X24524739Y-21783607D01*
X24523021Y-21787756D01*
X24520619Y-21812142D01*
X23508762Y-21812142D01*
X23494008Y-21782634D01*
X23494008Y-21716904D01*
X23491606Y-21692518D01*
X23472942Y-21647458D01*
X23438454Y-21612970D01*
X23393394Y-21594306D01*
X23344622Y-21594306D01*
X23299562Y-21612970D01*
X23265074Y-21647458D01*
X23246410Y-21692518D01*
X23244008Y-21716904D01*
X22788077Y-21716904D01*
X22788077Y-21097856D01*
X23244008Y-21097856D01*
X23244008Y-21240713D01*
X23246410Y-21265099D01*
X23248128Y-21269247D01*
X23248447Y-21273729D01*
X23257205Y-21296615D01*
X23265664Y-21313533D01*
X23265074Y-21314124D01*
X23246410Y-21359184D01*
X23246410Y-21407956D01*
X23265074Y-21453016D01*
X23299562Y-21487504D01*
X23344622Y-21506168D01*
X23369008Y-21508570D01*
X24035675Y-21508570D01*
X24060061Y-21506168D01*
X24105121Y-21487504D01*
X24139609Y-21453016D01*
X24158273Y-21407956D01*
X24158273Y-21359184D01*
X24139609Y-21314124D01*
X24105121Y-21279636D01*
X24060061Y-21260972D01*
X24035675Y-21258570D01*
X23517690Y-21258570D01*
X23494008Y-21211205D01*
X23494008Y-21127364D01*
X23509796Y-21095787D01*
X23541374Y-21079999D01*
X24035675Y-21079999D01*
X24060061Y-21077597D01*
X24105121Y-21058933D01*
X24139609Y-21024445D01*
X24158273Y-20979385D01*
X24158273Y-20954999D01*
X24520619Y-20954999D01*
X24520619Y-21193094D01*
X24523021Y-21217480D01*
X24541685Y-21262540D01*
X24576173Y-21297028D01*
X24621233Y-21315692D01*
X24645619Y-21318094D01*
X25645619Y-21318094D01*
X25670005Y-21315692D01*
X25715065Y-21297028D01*
X25749553Y-21262540D01*
X25768217Y-21217480D01*
X25770619Y-21193094D01*
X25770619Y-20954999D01*
X25769403Y-20942655D01*
X25769637Y-20939364D01*
X25768652Y-20935034D01*
X25768217Y-20930613D01*
X25766953Y-20927563D01*
X25764204Y-20915470D01*
X25716585Y-20772614D01*
X25706595Y-20750239D01*
X25703652Y-20746846D01*
X25701933Y-20742695D01*
X25686388Y-20723753D01*
X25591149Y-20628515D01*
X25581560Y-20620646D01*
X25579400Y-20618155D01*
X25575643Y-20615790D01*
X25572207Y-20612970D01*
X25569156Y-20611706D01*
X25558662Y-20605100D01*
X25463425Y-20557482D01*
X25461639Y-20556798D01*
X25460915Y-20556262D01*
X25450685Y-20552606D01*
X25440539Y-20548724D01*
X25439639Y-20548660D01*
X25437840Y-20548017D01*
X25247364Y-20500398D01*
X25243134Y-20499772D01*
X25241433Y-20499068D01*
X25232251Y-20498163D01*
X25223123Y-20496814D01*
X25221301Y-20497085D01*
X25217047Y-20496666D01*
X25074190Y-20496666D01*
X25069935Y-20497085D01*
X25068113Y-20496814D01*
X25058983Y-20498163D01*
X25049804Y-20499068D01*
X25048102Y-20499772D01*
X25043873Y-20500398D01*
X24853397Y-20548017D01*
X24851597Y-20548660D01*
X24850698Y-20548724D01*
X24840551Y-20552606D01*
X24830322Y-20556262D01*
X24829597Y-20556798D01*
X24827812Y-20557482D01*
X24732574Y-20605101D01*
X24722077Y-20611708D01*
X24719030Y-20612971D01*
X24715598Y-20615787D01*
X24711837Y-20618155D01*
X24709673Y-20620649D01*
X24700088Y-20628516D01*
X24604850Y-20723754D01*
X24589305Y-20742696D01*
X24587586Y-20746845D01*
X24584643Y-20750239D01*
X24574652Y-20772614D01*
X24527034Y-20915471D01*
X24524284Y-20927561D01*
X24523021Y-20930613D01*
X24522585Y-20935035D01*
X24521601Y-20939365D01*
X24521834Y-20942655D01*
X24520619Y-20954999D01*
X24158273Y-20954999D01*
X24158273Y-20930613D01*
X24139609Y-20885553D01*
X24105121Y-20851065D01*
X24060061Y-20832401D01*
X24035675Y-20829999D01*
X23511865Y-20829999D01*
X23487479Y-20832401D01*
X23483329Y-20834119D01*
X23478849Y-20834438D01*
X23455963Y-20843196D01*
X23360725Y-20890815D01*
X23356648Y-20893381D01*
X23354723Y-20894023D01*
X23352324Y-20896102D01*
X23339988Y-20903869D01*
X23329718Y-20915709D01*
X23317878Y-20925979D01*
X23310111Y-20938316D01*
X23308032Y-20940714D01*
X23307390Y-20942638D01*
X23304823Y-20946717D01*
X23257205Y-21041954D01*
X23248447Y-21064840D01*
X23248128Y-21069321D01*
X23246410Y-21073470D01*
X23244008Y-21097856D01*
X22788077Y-21097856D01*
X22788077Y-20193094D01*
X23244008Y-20193094D01*
X23244008Y-20383570D01*
X23246410Y-20407956D01*
X23248128Y-20412104D01*
X23248447Y-20416586D01*
X23257205Y-20439472D01*
X23304823Y-20534709D01*
X23317878Y-20555447D01*
X23354723Y-20587403D01*
X23400993Y-20602826D01*
X23449643Y-20599368D01*
X23493266Y-20577557D01*
X23525222Y-20540712D01*
X23540645Y-20494441D01*
X23537188Y-20445792D01*
X23528430Y-20422906D01*
X23494008Y-20354062D01*
X23494008Y-20222602D01*
X23509796Y-20191025D01*
X23529722Y-20181062D01*
X23529722Y-20383570D01*
X23532124Y-20407956D01*
X23533842Y-20412104D01*
X23534161Y-20416586D01*
X23542919Y-20439472D01*
X23590537Y-20534709D01*
X23593104Y-20538787D01*
X23593746Y-20540712D01*
X23595825Y-20543109D01*
X23603592Y-20555447D01*
X23615432Y-20565716D01*
X23625702Y-20577557D01*
X23638038Y-20585323D01*
X23640437Y-20587403D01*
X23642362Y-20588044D01*
X23646439Y-20590611D01*
X23741677Y-20638230D01*
X23764563Y-20646988D01*
X23769043Y-20647306D01*
X23773193Y-20649025D01*
X23797579Y-20651427D01*
X23892817Y-20651427D01*
X23917203Y-20649025D01*
X23921352Y-20647306D01*
X23925832Y-20646988D01*
X23948718Y-20638231D01*
X24043957Y-20590612D01*
X24048035Y-20588044D01*
X24049960Y-20587403D01*
X24052356Y-20585324D01*
X24064694Y-20577558D01*
X24074965Y-20565715D01*
X24086805Y-20555447D01*
X24094569Y-20543113D01*
X24096651Y-20540713D01*
X24097293Y-20538785D01*
X24099859Y-20534710D01*
X24147478Y-20439472D01*
X24156236Y-20416586D01*
X24156554Y-20412105D01*
X24158273Y-20407956D01*
X24160675Y-20383570D01*
X24160675Y-20145475D01*
X24158273Y-20121089D01*
X24156554Y-20116939D01*
X24156236Y-20112459D01*
X24149688Y-20095348D01*
X24158273Y-20074623D01*
X24158273Y-20025851D01*
X24139609Y-19980791D01*
X24105121Y-19946303D01*
X24060061Y-19927639D01*
X24035675Y-19925237D01*
X23511865Y-19925237D01*
X23487479Y-19927639D01*
X23483329Y-19929357D01*
X23478849Y-19929676D01*
X23455963Y-19938434D01*
X23360725Y-19986053D01*
X23356648Y-19988619D01*
X23354723Y-19989261D01*
X23352324Y-19991340D01*
X23339988Y-19999107D01*
X23329718Y-20010947D01*
X23317878Y-20021217D01*
X23310111Y-20033554D01*
X23308032Y-20035952D01*
X23307390Y-20037876D01*
X23304823Y-20041955D01*
X23257205Y-20137192D01*
X23248447Y-20160078D01*
X23248128Y-20164559D01*
X23246410Y-20168708D01*
X23244008Y-20193094D01*
X22788077Y-20193094D01*
X22788077Y-19121089D01*
X22913077Y-19121089D01*
X22913077Y-19169861D01*
X22931741Y-19214921D01*
X22966229Y-19249409D01*
X23011289Y-19268073D01*
X23035675Y-19270475D01*
X23244008Y-19270475D01*
X23244008Y-19431189D01*
X23246410Y-19455575D01*
X23248128Y-19459723D01*
X23248447Y-19464205D01*
X23257205Y-19487091D01*
X23304823Y-19582328D01*
X23311432Y-19592826D01*
X23312694Y-19595873D01*
X23315509Y-19599304D01*
X23317878Y-19603066D01*
X23320372Y-19605229D01*
X23328239Y-19614815D01*
X23375857Y-19662434D01*
X23385445Y-19670303D01*
X23387607Y-19672795D01*
X23391364Y-19675160D01*
X23394799Y-19677979D01*
X23397849Y-19679242D01*
X23408344Y-19685849D01*
X23503582Y-19733468D01*
X23526468Y-19742226D01*
X23530948Y-19742544D01*
X23535098Y-19744263D01*
X23559484Y-19746665D01*
X23845198Y-19746665D01*
X23869584Y-19744263D01*
X23873732Y-19742544D01*
X23878214Y-19742226D01*
X23901100Y-19733468D01*
X23996337Y-19685850D01*
X24006833Y-19679242D01*
X24009881Y-19677980D01*
X24013314Y-19675162D01*
X24017075Y-19672795D01*
X24019238Y-19670300D01*
X24028823Y-19662435D01*
X24076443Y-19614816D01*
X24084312Y-19605227D01*
X24086805Y-19603066D01*
X24089168Y-19599311D01*
X24091989Y-19595875D01*
X24093253Y-19592821D01*
X24099859Y-19582329D01*
X24147478Y-19487091D01*
X24156236Y-19464205D01*
X24156554Y-19459724D01*
X24158273Y-19455575D01*
X24160675Y-19431189D01*
X24160675Y-19240713D01*
X24158273Y-19216327D01*
X24156554Y-19212177D01*
X24156236Y-19207697D01*
X24149688Y-19190586D01*
X24158273Y-19169861D01*
X24158273Y-19121089D01*
X24139609Y-19076029D01*
X24105121Y-19041541D01*
X24082009Y-19031968D01*
X24855294Y-19031968D01*
X24857716Y-19080680D01*
X24878595Y-19124759D01*
X24914753Y-19157491D01*
X24936910Y-19167955D01*
X25273966Y-19288332D01*
X24936910Y-19408709D01*
X24914753Y-19419173D01*
X24878595Y-19451905D01*
X24857716Y-19495984D01*
X24855294Y-19544696D01*
X24871698Y-19590626D01*
X24904430Y-19626784D01*
X24948509Y-19647663D01*
X24997221Y-19650085D01*
X25020994Y-19644145D01*
X25687661Y-19406050D01*
X25709818Y-19395586D01*
X25714469Y-19391375D01*
X25720141Y-19388689D01*
X25732416Y-19375129D01*
X25745976Y-19362854D01*
X25748662Y-19357181D01*
X25752873Y-19352531D01*
X25759023Y-19335309D01*
X25766855Y-19318776D01*
X25767166Y-19312507D01*
X25769276Y-19306601D01*
X25768368Y-19288332D01*
X25769276Y-19270063D01*
X25767166Y-19264156D01*
X25766855Y-19257888D01*
X25759023Y-19241354D01*
X25752873Y-19224133D01*
X25748662Y-19219482D01*
X25745976Y-19213810D01*
X25732416Y-19201534D01*
X25720141Y-19187975D01*
X25714469Y-19185288D01*
X25709818Y-19181078D01*
X25687661Y-19170614D01*
X25020994Y-18932519D01*
X24997221Y-18926579D01*
X24948509Y-18929001D01*
X24904430Y-18949880D01*
X24871698Y-18986038D01*
X24855294Y-19031968D01*
X24082009Y-19031968D01*
X24060061Y-19022877D01*
X24035675Y-19020475D01*
X23035675Y-19020475D01*
X23011289Y-19022877D01*
X22966229Y-19041541D01*
X22931741Y-19076029D01*
X22913077Y-19121089D01*
X22788077Y-19121089D01*
X22788077Y-18383570D01*
X23244008Y-18383570D01*
X23244008Y-18574046D01*
X23246410Y-18598432D01*
X23248128Y-18602580D01*
X23248447Y-18607062D01*
X23257205Y-18629948D01*
X23304823Y-18725185D01*
X23317878Y-18745923D01*
X23354723Y-18777879D01*
X23400993Y-18793302D01*
X23449643Y-18789844D01*
X23493266Y-18768033D01*
X23525222Y-18731188D01*
X23540645Y-18684917D01*
X23537188Y-18636268D01*
X23528430Y-18613382D01*
X23494008Y-18544538D01*
X23494008Y-18413078D01*
X23509796Y-18381501D01*
X23529722Y-18371538D01*
X23529722Y-18574046D01*
X23532124Y-18598432D01*
X23533842Y-18602580D01*
X23534161Y-18607062D01*
X23542919Y-18629948D01*
X23590537Y-18725185D01*
X23593104Y-18729263D01*
X23593746Y-18731188D01*
X23595825Y-18733585D01*
X23603592Y-18745923D01*
X23615432Y-18756192D01*
X23625702Y-18768033D01*
X23638038Y-18775799D01*
X23640437Y-18777879D01*
X23642362Y-18778520D01*
X23646439Y-18781087D01*
X23741677Y-18828706D01*
X23764563Y-18837464D01*
X23769043Y-18837782D01*
X23773193Y-18839501D01*
X23797579Y-18841903D01*
X23892817Y-18841903D01*
X23917203Y-18839501D01*
X23921352Y-18837782D01*
X23925832Y-18837464D01*
X23948718Y-18828707D01*
X24043957Y-18781088D01*
X24048035Y-18778520D01*
X24049960Y-18777879D01*
X24052356Y-18775800D01*
X24064694Y-18768034D01*
X24074965Y-18756191D01*
X24086805Y-18745923D01*
X24094569Y-18733589D01*
X24096651Y-18731189D01*
X24097293Y-18729261D01*
X24099859Y-18725186D01*
X24140004Y-18644896D01*
X25427782Y-18644896D01*
X25427782Y-18644897D01*
X25427783Y-18644897D01*
X25427782Y-18644899D01*
X25427782Y-18693672D01*
X25434568Y-18710053D01*
X25446446Y-18738730D01*
X25446447Y-18738731D01*
X25461993Y-18757673D01*
X25509612Y-18805292D01*
X25528555Y-18820837D01*
X25547555Y-18828707D01*
X25573613Y-18839501D01*
X25573614Y-18839501D01*
X25622388Y-18839501D01*
X25667447Y-18820836D01*
X25667451Y-18820831D01*
X25686388Y-18805291D01*
X25734007Y-18757673D01*
X25749552Y-18738731D01*
X25749553Y-18738730D01*
X25761431Y-18710053D01*
X25768217Y-18693671D01*
X25768217Y-18644898D01*
X25768217Y-18644896D01*
X25760485Y-18626233D01*
X25749553Y-18599838D01*
X25749552Y-18599837D01*
X25734007Y-18580895D01*
X25686388Y-18533277D01*
X25667451Y-18517736D01*
X25667447Y-18517732D01*
X25622388Y-18499067D01*
X25622387Y-18499067D01*
X25573613Y-18499067D01*
X25561388Y-18504131D01*
X25528555Y-18517731D01*
X25509612Y-18533276D01*
X25461993Y-18580895D01*
X25446447Y-18599837D01*
X25446446Y-18599838D01*
X25446446Y-18599839D01*
X25427782Y-18644896D01*
X24140004Y-18644896D01*
X24147478Y-18629948D01*
X24156236Y-18607062D01*
X24156554Y-18602581D01*
X24158273Y-18598432D01*
X24160675Y-18574046D01*
X24160675Y-18335951D01*
X24158273Y-18311565D01*
X24156554Y-18307415D01*
X24156236Y-18302935D01*
X24149688Y-18285824D01*
X24158273Y-18265099D01*
X24158273Y-18216327D01*
X24139609Y-18171267D01*
X24105121Y-18136779D01*
X24060061Y-18118115D01*
X24035675Y-18115713D01*
X23511865Y-18115713D01*
X23487479Y-18118115D01*
X23483329Y-18119833D01*
X23478849Y-18120152D01*
X23455963Y-18128910D01*
X23360725Y-18176529D01*
X23356648Y-18179095D01*
X23354723Y-18179737D01*
X23352324Y-18181816D01*
X23339988Y-18189583D01*
X23329718Y-18201423D01*
X23317878Y-18211693D01*
X23310111Y-18224030D01*
X23308032Y-18226428D01*
X23307390Y-18228352D01*
X23304823Y-18232431D01*
X23257205Y-18327668D01*
X23248447Y-18350554D01*
X23248128Y-18355035D01*
X23246410Y-18359184D01*
X23244008Y-18383570D01*
X22788077Y-18383570D01*
X22788077Y-17669285D01*
X24520619Y-17669285D01*
X24520619Y-18288332D01*
X24523021Y-18312718D01*
X24541685Y-18357778D01*
X24576173Y-18392266D01*
X24621233Y-18410930D01*
X24670005Y-18410930D01*
X24715065Y-18392266D01*
X24749553Y-18357778D01*
X24768217Y-18312718D01*
X24770619Y-18288332D01*
X24770619Y-17944755D01*
X24944258Y-18096690D01*
X24954798Y-18104225D01*
X24957125Y-18106552D01*
X24959330Y-18107465D01*
X24964192Y-18110941D01*
X24983430Y-18117447D01*
X25002185Y-18125216D01*
X25006399Y-18125216D01*
X25010393Y-18126567D01*
X25030660Y-18125216D01*
X25050957Y-18125216D01*
X25054849Y-18123603D01*
X25059059Y-18123323D01*
X25077264Y-18114319D01*
X25096017Y-18106552D01*
X25098998Y-18103570D01*
X25102777Y-18101702D01*
X25116147Y-18086421D01*
X25130505Y-18072064D01*
X25132118Y-18068169D01*
X25134894Y-18064997D01*
X25141400Y-18045758D01*
X25149169Y-18027004D01*
X25149754Y-18021059D01*
X25150520Y-18018796D01*
X25150301Y-18015511D01*
X25151571Y-18002618D01*
X25151571Y-17889269D01*
X25176921Y-17838567D01*
X25195854Y-17819635D01*
X25246556Y-17794285D01*
X25425634Y-17794285D01*
X25476336Y-17819636D01*
X25495268Y-17838568D01*
X25520619Y-17889269D01*
X25520619Y-18115966D01*
X25495268Y-18166667D01*
X25461993Y-18199943D01*
X25446447Y-18218885D01*
X25427782Y-18263944D01*
X25427782Y-18312717D01*
X25446446Y-18357777D01*
X25480933Y-18392265D01*
X25525992Y-18410930D01*
X25574765Y-18410930D01*
X25619825Y-18392266D01*
X25638767Y-18376721D01*
X25686387Y-18329102D01*
X25694256Y-18319513D01*
X25696749Y-18317352D01*
X25699112Y-18313597D01*
X25701933Y-18310161D01*
X25703197Y-18307107D01*
X25709803Y-18296615D01*
X25757422Y-18201377D01*
X25766180Y-18178491D01*
X25766498Y-18174010D01*
X25768217Y-18169861D01*
X25770619Y-18145475D01*
X25770619Y-17859761D01*
X25768217Y-17835375D01*
X25766498Y-17831225D01*
X25766180Y-17826745D01*
X25757422Y-17803859D01*
X25709803Y-17708621D01*
X25703197Y-17698128D01*
X25701933Y-17695075D01*
X25699112Y-17691638D01*
X25696749Y-17687884D01*
X25694256Y-17685722D01*
X25686387Y-17676134D01*
X25638767Y-17628515D01*
X25629182Y-17620649D01*
X25627019Y-17618155D01*
X25623258Y-17615787D01*
X25619825Y-17612970D01*
X25616777Y-17611707D01*
X25606281Y-17605100D01*
X25511044Y-17557482D01*
X25488158Y-17548724D01*
X25483676Y-17548405D01*
X25479528Y-17546687D01*
X25455142Y-17544285D01*
X25217047Y-17544285D01*
X25192661Y-17546687D01*
X25188511Y-17548405D01*
X25184031Y-17548724D01*
X25161145Y-17557482D01*
X25065907Y-17605101D01*
X25055412Y-17611707D01*
X25052362Y-17612971D01*
X25048927Y-17615789D01*
X25045170Y-17618155D01*
X25043008Y-17620646D01*
X25033420Y-17628516D01*
X24985802Y-17676135D01*
X24977935Y-17685720D01*
X24975441Y-17687884D01*
X24973072Y-17691645D01*
X24970257Y-17695077D01*
X24968995Y-17698123D01*
X24962386Y-17708622D01*
X24937433Y-17758527D01*
X24727932Y-17575213D01*
X24717391Y-17567677D01*
X24715065Y-17565351D01*
X24712859Y-17564437D01*
X24707998Y-17560962D01*
X24688759Y-17554455D01*
X24670005Y-17546687D01*
X24665791Y-17546687D01*
X24661797Y-17545336D01*
X24641536Y-17546687D01*
X24621233Y-17546687D01*
X24617337Y-17548300D01*
X24613131Y-17548581D01*
X24594932Y-17557580D01*
X24576173Y-17565351D01*
X24573191Y-17568332D01*
X24569413Y-17570201D01*
X24556042Y-17585481D01*
X24541685Y-17599839D01*
X24540071Y-17603733D01*
X24537296Y-17606906D01*
X24530789Y-17626144D01*
X24523021Y-17644899D01*
X24522435Y-17650843D01*
X24521670Y-17653107D01*
X24521889Y-17656391D01*
X24520619Y-17669285D01*
X22788077Y-17669285D01*
X22788077Y-17419285D01*
X25895619Y-17419285D01*
X25895619Y-24443094D01*
G37*
D11*
%TO.P,Y1,1,1*%
%TO.N,Net-(U1-XTAL2)*%
X53100000Y-32800000D03*
%TO.P,Y1,2,2*%
%TO.N,GND*%
X56000000Y-32800000D03*
%TO.P,Y1,3,3*%
%TO.N,Net-(U1-XTAL1)*%
X56000000Y-30500000D03*
%TO.P,Y1,4,4*%
%TO.N,GND*%
X53100000Y-30500000D03*
%TD*%
D12*
%TO.P,U1,1,PE6*%
%TO.N,/PE6*%
X37450000Y-42200000D03*
%TO.P,U1,2,UVCC*%
%TO.N,+5V*%
X38250000Y-42200000D03*
%TO.P,U1,3,D-*%
%TO.N,/D+*%
X39050000Y-42200000D03*
%TO.P,U1,4,D+*%
%TO.N,/D-*%
X39850000Y-42200000D03*
%TO.P,U1,5,UGND*%
%TO.N,GND*%
X40650000Y-42200000D03*
%TO.P,U1,6,UCAP*%
%TO.N,Net-(U1-UCAP)*%
X41450000Y-42200000D03*
%TO.P,U1,7,VBUS*%
%TO.N,+5V*%
X42250000Y-42200000D03*
%TO.P,U1,8,PB0*%
%TO.N,/PB0*%
X43050000Y-42200000D03*
%TO.P,U1,9,PB1*%
%TO.N,/PB1{slash}SCLK*%
X43850000Y-42200000D03*
%TO.P,U1,10,PB2*%
%TO.N,/PB2{slash}MOSI*%
X44650000Y-42200000D03*
%TO.P,U1,11,PB3*%
%TO.N,/PB3{slash}MISO*%
X45450000Y-42200000D03*
D13*
%TO.P,U1,12,PB7*%
%TO.N,/PB7*%
X47150000Y-40500000D03*
%TO.P,U1,13,~{RESET}*%
%TO.N,/RESET*%
X47150000Y-39700000D03*
%TO.P,U1,14,VCC*%
%TO.N,+5V*%
X47150000Y-38900000D03*
%TO.P,U1,15,GND*%
%TO.N,GND*%
X47150000Y-38100000D03*
%TO.P,U1,16,XTAL2*%
%TO.N,Net-(U1-XTAL2)*%
X47150000Y-37300000D03*
%TO.P,U1,17,XTAL1*%
%TO.N,Net-(U1-XTAL1)*%
X47150000Y-36500000D03*
%TO.P,U1,18,PD0*%
%TO.N,/PD0*%
X47150000Y-35700000D03*
%TO.P,U1,19,PD1*%
%TO.N,/PD1*%
X47150000Y-34900000D03*
%TO.P,U1,20,PD2*%
%TO.N,/PD2*%
X47150000Y-34100000D03*
%TO.P,U1,21,PD3*%
%TO.N,/PD3*%
X47150000Y-33300000D03*
%TO.P,U1,22,PD5*%
%TO.N,unconnected-(U1-PD5-Pad22)*%
X47150000Y-32500000D03*
D12*
%TO.P,U1,23,GND*%
%TO.N,GND*%
X45450000Y-30800000D03*
%TO.P,U1,24,AVCC*%
%TO.N,+5V*%
X44650000Y-30800000D03*
%TO.P,U1,25,PD4*%
%TO.N,/PD4*%
X43850000Y-30800000D03*
%TO.P,U1,26,PD6*%
%TO.N,/PD6*%
X43050000Y-30800000D03*
%TO.P,U1,27,PD7*%
%TO.N,/PD7*%
X42250000Y-30800000D03*
%TO.P,U1,28,PB4*%
%TO.N,/PB4*%
X41450000Y-30800000D03*
%TO.P,U1,29,PB5*%
%TO.N,/PB5*%
X40650000Y-30800000D03*
%TO.P,U1,30,PB6*%
%TO.N,/PB6*%
X39850000Y-30800000D03*
%TO.P,U1,31,PC6*%
%TO.N,/PC6*%
X39050000Y-30800000D03*
%TO.P,U1,32,PC7*%
%TO.N,/PC7*%
X38250000Y-30800000D03*
%TO.P,U1,33,~{HWB}/PE2*%
%TO.N,Net-(U1-~{HWB}{slash}PE2)*%
X37450000Y-30800000D03*
D13*
%TO.P,U1,34,VCC*%
%TO.N,+5V*%
X35750000Y-32500000D03*
%TO.P,U1,35,GND*%
%TO.N,GND*%
X35750000Y-33300000D03*
%TO.P,U1,36,PF7*%
%TO.N,/PF7*%
X35750000Y-34100000D03*
%TO.P,U1,37,PF6*%
%TO.N,/PF6*%
X35750000Y-34900000D03*
%TO.P,U1,38,PF5*%
%TO.N,/PF5*%
X35750000Y-35700000D03*
%TO.P,U1,39,PF4*%
%TO.N,/PF4*%
X35750000Y-36500000D03*
%TO.P,U1,40,PF1*%
%TO.N,/PF1*%
X35750000Y-37300000D03*
%TO.P,U1,41,PF0*%
%TO.N,/PF0*%
X35750000Y-38100000D03*
%TO.P,U1,42,AREF*%
%TO.N,Net-(U1-AREF)*%
X35750000Y-38900000D03*
%TO.P,U1,43,GND*%
%TO.N,GND*%
X35750000Y-39700000D03*
%TO.P,U1,44,AVCC*%
%TO.N,+5V*%
X35750000Y-40500000D03*
%TD*%
D14*
%TO.P,R4,1*%
%TO.N,+5V*%
X51325000Y-39500000D03*
%TO.P,R4,2*%
%TO.N,/RESET*%
X54250000Y-39500000D03*
%TD*%
D15*
%TO.P,R6,1*%
%TO.N,Net-(U1-~{HWB}{slash}PE2)*%
X37162350Y-28471250D03*
%TO.P,R6,2*%
%TO.N,GND*%
X34237350Y-28471250D03*
%TD*%
D16*
%TO.P,J8,1,Pin_1*%
%TO.N,/PB3{slash}MISO*%
X48768000Y-50419000D03*
%TD*%
D17*
%TO.P,R7,1*%
%TO.N,GND*%
X38735000Y-50042000D03*
%TO.P,R7,2*%
X38735000Y-47117000D03*
%TD*%
D15*
%TO.P,R1,1*%
%TO.N,GND*%
X33479000Y-52284000D03*
%TO.P,R1,2*%
%TO.N,GNDPWR*%
X30554000Y-52284000D03*
%TD*%
D18*
%TO.P,C11,1*%
%TO.N,Net-(U1-AREF)*%
X30656000Y-40259000D03*
%TO.P,C11,2*%
%TO.N,GND*%
X33606000Y-40259000D03*
%TD*%
D14*
%TO.P,R2,1*%
%TO.N,/BUS-*%
X30525000Y-46863000D03*
%TO.P,R2,2*%
%TO.N,/D-*%
X33450000Y-46863000D03*
%TD*%
D19*
%TO.P,J2,1,VBUS*%
%TO.N,VBUS*%
X27450000Y-45200000D03*
%TO.P,J2,2,D-*%
%TO.N,/BUS+*%
X27450000Y-45850000D03*
%TO.P,J2,3,D+*%
%TO.N,/BUS-*%
X27450000Y-46500000D03*
%TO.P,J2,4,ID*%
%TO.N,unconnected-(J2-ID-Pad4)*%
X27450000Y-47150000D03*
%TO.P,J2,5,GND*%
%TO.N,GND*%
X27450000Y-47800000D03*
D20*
%TO.P,J2,6,Shield*%
%TO.N,GNDPWR*%
X24600000Y-42750000D03*
D21*
X24600000Y-45350000D03*
X24600000Y-47650000D03*
D20*
X24600000Y-50250000D03*
%TD*%
D22*
%TO.P,J3,1,Pin_1*%
%TO.N,/PB1{slash}SCLK*%
X54184000Y-23120000D03*
%TO.P,J3,2,Pin_2*%
%TO.N,/PB2{slash}MOSI*%
X53184000Y-23120000D03*
%TO.P,J3,3,Pin_3*%
%TO.N,/PB3{slash}MISO*%
X52184000Y-23120000D03*
%TO.P,J3,4,Pin_4*%
%TO.N,/PB0*%
X51184000Y-23120000D03*
%TO.P,J3,5,Pin_5*%
%TO.N,/PB7*%
X50184000Y-23120000D03*
%TO.P,J3,6,Pin_6*%
%TO.N,/PD0*%
X49184000Y-23120000D03*
%TO.P,J3,7,Pin_7*%
%TO.N,/PD1*%
X48184000Y-23120000D03*
%TO.P,J3,8,Pin_8*%
%TO.N,/PD2*%
X47184000Y-23120000D03*
%TO.P,J3,9,Pin_9*%
%TO.N,/PD3*%
X46184000Y-23120000D03*
%TO.P,J3,10,Pin_10*%
%TO.N,/PD4*%
X45184000Y-23120000D03*
%TO.P,J3,11,Pin_11*%
%TO.N,/PD6*%
X44184000Y-23120000D03*
%TO.P,J3,12,Pin_12*%
%TO.N,/PD7*%
X43184000Y-23120000D03*
%TO.P,J3,13,Pin_13*%
%TO.N,/PB4*%
X42184000Y-23120000D03*
%TO.P,J3,14,Pin_14*%
%TO.N,/PB5*%
X41184000Y-23120000D03*
%TO.P,J3,15,Pin_15*%
%TO.N,/PB6*%
X40184000Y-23120000D03*
%TO.P,J3,16,Pin_16*%
%TO.N,/PC6*%
X39184000Y-23120000D03*
%TO.P,J3,17,Pin_17*%
%TO.N,/PC7*%
X38184000Y-23120000D03*
%TO.P,J3,18,Pin_18*%
%TO.N,/PF7*%
X37184000Y-23120000D03*
%TO.P,J3,19,Pin_19*%
%TO.N,/PF6*%
X36184000Y-23120000D03*
%TO.P,J3,20,Pin_20*%
%TO.N,/PF5*%
X35184000Y-23120000D03*
%TO.P,J3,21,Pin_21*%
%TO.N,/PF4*%
X34184000Y-23120000D03*
%TO.P,J3,22,Pin_22*%
%TO.N,/PF1*%
X33184000Y-23120000D03*
%TO.P,J3,23,Pin_23*%
%TO.N,/PF0*%
X32184000Y-23120000D03*
%TO.P,J3,24,Pin_24*%
%TO.N,/PE6*%
X31184000Y-23120000D03*
D23*
%TO.P,J3,MP,MountPin*%
%TO.N,GND*%
X57174000Y-20320000D03*
X28194000Y-20320000D03*
%TD*%
D24*
%TO.P,C2,1*%
%TO.N,Net-(U1-XTAL2)*%
X52295000Y-36500000D03*
%TO.P,C2,2*%
%TO.N,GND*%
X53255000Y-36500000D03*
%TD*%
D25*
%TO.P,C12,1*%
%TO.N,Net-(U1-UCAP)*%
X41148000Y-47088000D03*
%TO.P,C12,2*%
%TO.N,GND*%
X41148000Y-50038000D03*
%TD*%
D26*
%TO.P,D1,1,K*%
%TO.N,GND*%
X27432000Y-25905000D03*
%TO.P,D1,2,A*%
%TO.N,Net-(D1-A)*%
X27432000Y-28705000D03*
%TD*%
D27*
%TO.P,R5,1*%
%TO.N,Net-(D1-A)*%
X27432000Y-32630000D03*
%TO.P,R5,2*%
%TO.N,+5V*%
X27432000Y-33500000D03*
%TD*%
D16*
%TO.P,J4,1,Pin_1*%
%TO.N,/RESET*%
X50165000Y-50419000D03*
%TD*%
D25*
%TO.P,C4,1*%
%TO.N,+5V*%
X36322000Y-47088000D03*
%TO.P,C4,2*%
%TO.N,GND*%
X36322000Y-50038000D03*
%TD*%
D16*
%TO.P,J7,1,Pin_1*%
%TO.N,+5V*%
X44577000Y-50419000D03*
%TD*%
%TO.P,J6,1,Pin_1*%
%TO.N,/PB1{slash}SCLK*%
X45974000Y-50419000D03*
%TD*%
D15*
%TO.P,R3,1*%
%TO.N,/D+*%
X33450000Y-44450000D03*
%TO.P,R3,2*%
%TO.N,/BUS+*%
X30525000Y-44450000D03*
%TD*%
D28*
%TO.P,SW1,1,1*%
%TO.N,GND*%
X57000000Y-42000000D03*
X57000000Y-49960000D03*
%TO.P,SW1,2,2*%
%TO.N,/RESET*%
X52500000Y-42000000D03*
X52500000Y-49960000D03*
%TD*%
D16*
%TO.P,J5,1,Pin_1*%
%TO.N,GND*%
X43180000Y-50419000D03*
%TD*%
D29*
%TO.P,C1,1*%
%TO.N,GND*%
X33479000Y-49784000D03*
%TO.P,C1,2*%
%TO.N,GNDPWR*%
X30529000Y-49784000D03*
%TD*%
D30*
%TO.P,C3,1*%
%TO.N,GND*%
X56750000Y-36960000D03*
%TO.P,C3,2*%
%TO.N,Net-(U1-XTAL1)*%
X56750000Y-36000000D03*
%TD*%
D16*
%TO.P,J1,1,Pin_1*%
%TO.N,/PB2{slash}MOSI*%
X47371000Y-50419000D03*
%TD*%
D31*
%TO.P,F2,1*%
%TO.N,VBUS*%
X27432000Y-37490500D03*
%TO.P,F2,2*%
%TO.N,+5V*%
X27432000Y-35915500D03*
%TD*%
D32*
%TO.N,GND*%
X47150000Y-38100000D02*
X45550000Y-38100000D01*
X35750000Y-33300000D02*
X34685000Y-33300000D01*
X56000000Y-32800000D02*
X55550000Y-32800000D01*
X34165000Y-39700000D02*
X33606000Y-40259000D01*
X55550000Y-32800000D02*
X54550000Y-31800000D01*
X35750000Y-39700000D02*
X37950000Y-39700000D01*
X28194000Y-20320000D02*
X57174000Y-20320000D01*
X27686000Y-20828000D02*
X28194000Y-20320000D01*
X33479000Y-52284000D02*
X33475000Y-52280000D01*
X29004000Y-47800000D02*
X29464000Y-48260000D01*
X41144000Y-50042000D02*
X41148000Y-50038000D01*
X38735000Y-45412056D02*
X38735000Y-47117000D01*
X27686000Y-20828000D02*
X28448000Y-20066000D01*
X33450000Y-51975000D02*
X33475000Y-52000000D01*
D33*
X53255000Y-36500000D02*
X53255000Y-35545000D01*
X53255000Y-36500000D02*
X53255000Y-37855000D01*
D32*
X33903250Y-28805350D02*
X34237350Y-28471250D01*
X53901000Y-53059000D02*
X44169000Y-53059000D01*
X42799000Y-50038000D02*
X43180000Y-50419000D01*
X43180000Y-52070000D02*
X43180000Y-50419000D01*
X37500000Y-39700000D02*
X37500000Y-33550000D01*
X54250000Y-38100000D02*
X55350000Y-38100000D01*
X40650000Y-39700000D02*
X40650000Y-42200000D01*
X40650000Y-42200000D02*
X40650000Y-43497056D01*
X29464000Y-48260000D02*
X31496000Y-48260000D01*
X57000000Y-49045000D02*
X57000000Y-49960000D01*
D33*
X53255000Y-37855000D02*
X53500000Y-38100000D01*
D32*
X33475000Y-52280000D02*
X33475000Y-52157000D01*
X33020000Y-49784000D02*
X33479000Y-49784000D01*
X36322000Y-50038000D02*
X38731000Y-50038000D01*
X36322000Y-50038000D02*
X33733000Y-50038000D01*
X54550000Y-31800000D02*
X54550000Y-31350000D01*
X33733000Y-50038000D02*
X33479000Y-49784000D01*
X34237350Y-32852350D02*
X34237350Y-28471250D01*
X27432000Y-25905000D02*
X27432000Y-21082000D01*
D33*
X55610000Y-38100000D02*
X55350000Y-38100000D01*
X53255000Y-35545000D02*
X56000000Y-32800000D01*
D32*
X56920000Y-20066000D02*
X57174000Y-20320000D01*
X37950000Y-39700000D02*
X40650000Y-39700000D01*
X47150000Y-38100000D02*
X53500000Y-38100000D01*
X31496000Y-48260000D02*
X33020000Y-49784000D01*
X56750000Y-39500000D02*
X56750000Y-41750000D01*
X41148000Y-50038000D02*
X42799000Y-50038000D01*
X56750000Y-41750000D02*
X57000000Y-42000000D01*
X57000000Y-49960000D02*
X53901000Y-53059000D01*
X40650000Y-43497056D02*
X38735000Y-45412056D01*
X61595000Y-44450000D02*
X57000000Y-49045000D01*
X27432000Y-21082000D02*
X28194000Y-20320000D01*
X33479000Y-49784000D02*
X33479000Y-52284000D01*
X61595000Y-24741000D02*
X61595000Y-44450000D01*
X37500000Y-33550000D02*
X37250000Y-33300000D01*
X53500000Y-38100000D02*
X54250000Y-38100000D01*
X54550000Y-31350000D02*
X53700000Y-30500000D01*
X45550000Y-38100000D02*
X45450000Y-38000000D01*
X45450000Y-38000000D02*
X45450000Y-30800000D01*
X37250000Y-33300000D02*
X35750000Y-33300000D01*
X38731000Y-50038000D02*
X38735000Y-50042000D01*
X38735000Y-50042000D02*
X41144000Y-50042000D01*
X55350000Y-38100000D02*
X56750000Y-39500000D01*
X36244000Y-49657000D02*
X36322000Y-49735000D01*
X35750000Y-39700000D02*
X34165000Y-39700000D01*
X53700000Y-30500000D02*
X53100000Y-30500000D01*
X27450000Y-47800000D02*
X29004000Y-47800000D01*
X57000000Y-49960000D02*
X57000000Y-50287152D01*
X34685000Y-33300000D02*
X34237350Y-32852350D01*
X44169000Y-53059000D02*
X43180000Y-52070000D01*
D33*
X56750000Y-36960000D02*
X55610000Y-38100000D01*
D32*
X57174000Y-20320000D02*
X57050000Y-20444000D01*
X57174000Y-20320000D02*
X61595000Y-24741000D01*
D33*
%TO.N,Net-(U1-XTAL2)*%
X52295000Y-33605000D02*
X52295000Y-36500000D01*
X51495000Y-37300000D02*
X52295000Y-36500000D01*
X53100000Y-32800000D02*
X52295000Y-33605000D01*
X47150000Y-37300000D02*
X51495000Y-37300000D01*
%TO.N,Net-(U1-XTAL1)*%
X52497480Y-28822000D02*
X52912520Y-28822000D01*
X52204000Y-28528521D02*
X52497479Y-28822000D01*
X52912520Y-28822000D02*
X54322000Y-28822000D01*
X57351000Y-35399000D02*
X57351000Y-31701000D01*
X56750000Y-36000000D02*
X57351000Y-35399000D01*
X57351000Y-31701000D02*
X56150000Y-30500000D01*
X52497479Y-28822000D02*
X52497480Y-28822000D01*
X51000000Y-28500000D02*
X52175480Y-28500000D01*
X54322000Y-28822000D02*
X56000000Y-30500000D01*
X48440504Y-36500000D02*
X51000000Y-33940504D01*
X52204000Y-28528521D02*
X52204000Y-28528520D01*
X51000000Y-33940504D02*
X51000000Y-28500000D01*
X47150000Y-36500000D02*
X48440504Y-36500000D01*
X52175480Y-28500000D02*
X52204000Y-28528521D01*
X56150000Y-30500000D02*
X56000000Y-30500000D01*
D32*
%TO.N,+5V*%
X36322000Y-48387000D02*
X42926000Y-48387000D01*
D33*
X36874000Y-42701000D02*
X36874000Y-43251000D01*
X29617479Y-42701000D02*
X30032520Y-42701000D01*
X30032520Y-42701000D02*
X36874000Y-42701000D01*
D32*
X42250000Y-42200000D02*
X42250000Y-44917000D01*
D33*
X38026000Y-43251000D02*
X38026000Y-42926000D01*
X29090000Y-42173521D02*
X29324000Y-42407521D01*
D32*
X44577000Y-49022000D02*
X44577000Y-50419000D01*
D33*
X38250000Y-43150000D02*
X38250000Y-42200000D01*
D32*
X44950000Y-38900000D02*
X44650000Y-38600000D01*
X44950000Y-38900000D02*
X44100000Y-38900000D01*
D33*
X28991000Y-36862000D02*
X28991000Y-42074520D01*
X29324000Y-42407521D02*
X29324000Y-42407520D01*
D32*
X38250000Y-40500000D02*
X35750000Y-40500000D01*
X44100000Y-38900000D02*
X42250000Y-40750000D01*
D33*
X29090000Y-42173520D02*
X29090000Y-42173521D01*
D32*
X32893000Y-48387000D02*
X36322000Y-48387000D01*
X32893000Y-48387000D02*
X32000000Y-47494000D01*
X44650000Y-30800000D02*
X44650000Y-32500000D01*
X42926000Y-48387000D02*
X43942000Y-48387000D01*
X49500000Y-39500000D02*
X51325000Y-39500000D01*
D33*
X29383480Y-42467000D02*
X29416480Y-42500000D01*
D32*
X47150000Y-38900000D02*
X44950000Y-38900000D01*
D33*
X36874000Y-43251000D02*
X38026000Y-43251000D01*
D32*
X42250000Y-40750000D02*
X42250000Y-42200000D01*
X43942000Y-48387000D02*
X44577000Y-49022000D01*
X38250000Y-42200000D02*
X38250000Y-40500000D01*
X47150000Y-38900000D02*
X48900000Y-38900000D01*
D33*
X28044500Y-35915500D02*
X28991000Y-36862000D01*
D32*
X43053000Y-45720000D02*
X43053000Y-48387000D01*
D33*
X29383479Y-42467000D02*
X29383480Y-42467000D01*
D32*
X44650000Y-38600000D02*
X44650000Y-32500000D01*
X42250000Y-44917000D02*
X43053000Y-45720000D01*
X36322000Y-47088000D02*
X36322000Y-48387000D01*
X35750000Y-32500000D02*
X44650000Y-32500000D01*
D33*
X29416480Y-42500000D02*
X29617480Y-42701000D01*
X27432000Y-35915500D02*
X28044500Y-35915500D01*
D32*
X48900000Y-38900000D02*
X49500000Y-39500000D01*
D33*
X38026000Y-42926000D02*
X38250000Y-43150000D01*
X29617480Y-42701000D02*
X29617479Y-42701000D01*
D32*
X32000000Y-47494000D02*
X32000000Y-42801000D01*
D33*
X29324000Y-42407520D02*
X29383479Y-42467000D01*
X27432000Y-33500000D02*
X27432000Y-35915500D01*
D32*
X43053000Y-48387000D02*
X42926000Y-48387000D01*
D33*
X28991000Y-42074520D02*
X29090000Y-42173520D01*
D32*
%TO.N,Net-(U1-AREF)*%
X32015000Y-38900000D02*
X30656000Y-40259000D01*
X35750000Y-38900000D02*
X32015000Y-38900000D01*
%TO.N,Net-(U1-UCAP)*%
X41450000Y-44832000D02*
X41148000Y-45134000D01*
X41148000Y-45134000D02*
X41148000Y-47088000D01*
X41450000Y-44832000D02*
X41450000Y-42200000D01*
%TO.N,/BUS-*%
X30162000Y-46500000D02*
X30525000Y-46863000D01*
X27450000Y-46500000D02*
X30162000Y-46500000D01*
%TO.N,/BUS+*%
X29125000Y-45850000D02*
X30525000Y-44450000D01*
X27450000Y-45850000D02*
X29125000Y-45850000D01*
%TO.N,/D-*%
X38298528Y-45000000D02*
X39850000Y-43448528D01*
X39850000Y-43448528D02*
X39850000Y-42200000D01*
X35518000Y-45000000D02*
X38298528Y-45000000D01*
X34018000Y-46500000D02*
X35518000Y-45000000D01*
X33450000Y-46500000D02*
X34018000Y-46500000D01*
%TO.N,/D+*%
X33450000Y-44000000D02*
X33450000Y-44196000D01*
X33654000Y-44400000D02*
X38050000Y-44400000D01*
X39050000Y-43400000D02*
X39050000Y-42200000D01*
X38050000Y-44400000D02*
X39050000Y-43400000D01*
X33450000Y-44196000D02*
X33654000Y-44400000D01*
D34*
%TO.N,/RESET*%
X50624000Y-49960000D02*
X50165000Y-50419000D01*
D32*
X47150000Y-39700000D02*
X48450000Y-39700000D01*
D34*
X52500000Y-49960000D02*
X50624000Y-49960000D01*
X50165000Y-50419000D02*
X50215800Y-50469800D01*
X52120800Y-49580800D02*
X52500000Y-49960000D01*
D32*
X50750000Y-42000000D02*
X52500000Y-42000000D01*
X54250000Y-40250000D02*
X54250000Y-39500000D01*
X48450000Y-39700000D02*
X50750000Y-42000000D01*
X52500000Y-42000000D02*
X54250000Y-40250000D01*
D33*
%TO.N,Net-(D1-A)*%
X27432000Y-32630000D02*
X27432000Y-28705000D01*
D34*
%TO.N,Net-(U1-~{HWB}{slash}PE2)*%
X37450000Y-28758900D02*
X37162350Y-28471250D01*
X37450000Y-30800000D02*
X37450000Y-28758900D01*
D32*
%TO.N,/PB2{slash}MOSI*%
X47771000Y-51819000D02*
X47371000Y-51419000D01*
X54625000Y-48356376D02*
X54625000Y-50555594D01*
X59944000Y-44000310D02*
X58644310Y-45300000D01*
X58644310Y-45300000D02*
X57681376Y-45300000D01*
X57681376Y-45300000D02*
X54625000Y-48356376D01*
X53184000Y-25752000D02*
X53953000Y-26521000D01*
X53361594Y-51819000D02*
X47771000Y-51819000D01*
X53184000Y-23120000D02*
X53184000Y-25752000D01*
X47371000Y-51419000D02*
X47371000Y-50419000D01*
X57685776Y-26521000D02*
X59944000Y-28779224D01*
X54625000Y-50555594D02*
X53361594Y-51819000D01*
X44650000Y-42200000D02*
X44650000Y-43888000D01*
X53953000Y-26521000D02*
X57685776Y-26521000D01*
X47371000Y-46609000D02*
X47371000Y-50419000D01*
X59944000Y-28779224D02*
X59944000Y-44000310D01*
X44650000Y-43888000D02*
X47371000Y-46609000D01*
D34*
%TO.N,/PB6*%
X40184000Y-27532400D02*
X40184000Y-23120000D01*
X39850000Y-27866400D02*
X40184000Y-27532400D01*
X39850000Y-30800000D02*
X39850000Y-27866400D01*
D32*
%TO.N,/PD3*%
X48500000Y-33186400D02*
X48500000Y-30212000D01*
X46184000Y-27896000D02*
X46184000Y-23120000D01*
X48386400Y-33300000D02*
X48500000Y-33186400D01*
X48500000Y-30212000D02*
X46184000Y-27896000D01*
X47150000Y-33300000D02*
X48386400Y-33300000D01*
D34*
%TO.N,/PB1{slash}SCLK*%
X54184000Y-23120000D02*
X54184000Y-25736000D01*
X57938188Y-45920000D02*
X55245000Y-48613188D01*
X58901122Y-45920000D02*
X57938188Y-45920000D01*
X54184000Y-25736000D02*
X54349000Y-25901000D01*
X46597000Y-52439000D02*
X45974000Y-51816000D01*
X43850000Y-42200000D02*
X43850000Y-43964812D01*
X43850000Y-43964812D02*
X45974000Y-46088812D01*
X54349000Y-25901000D02*
X57942588Y-25901000D01*
X45974000Y-46088812D02*
X45974000Y-50419000D01*
X55245000Y-48613188D02*
X55245000Y-50812406D01*
X57942588Y-25901000D02*
X60564000Y-28522412D01*
X53618406Y-52439000D02*
X46597000Y-52439000D01*
X45974000Y-51816000D02*
X45974000Y-50419000D01*
X60564000Y-44257122D02*
X58901122Y-45920000D01*
X55245000Y-50812406D02*
X53618406Y-52439000D01*
X60564000Y-28522412D02*
X60564000Y-44257122D01*
D32*
%TO.N,/PD2*%
X47184000Y-28047472D02*
X47184000Y-23120000D01*
X47150000Y-34100000D02*
X48434928Y-34100000D01*
X48434928Y-34100000D02*
X49100000Y-33434928D01*
X49100000Y-29963472D02*
X47184000Y-28047472D01*
X49100000Y-33434928D02*
X49100000Y-29963472D01*
%TO.N,/PB3{slash}MISO*%
X57437248Y-27121000D02*
X59344000Y-29027752D01*
X48768000Y-50419000D02*
X48768000Y-44700000D01*
X59344000Y-29027752D02*
X59344000Y-43751782D01*
X59344000Y-43751782D02*
X58395782Y-44700000D01*
X48768000Y-44700000D02*
X46310528Y-44700000D01*
X52184000Y-25768000D02*
X53537000Y-27121000D01*
X58395782Y-44700000D02*
X48768000Y-44700000D01*
X46310528Y-44700000D02*
X45450000Y-43839472D01*
X52184000Y-23120000D02*
X52184000Y-25768000D01*
X45450000Y-43839472D02*
X45450000Y-42200000D01*
X53537000Y-27121000D02*
X57437248Y-27121000D01*
D34*
%TO.N,/PC7*%
X38201600Y-23137600D02*
X38184000Y-23120000D01*
X38201600Y-27482800D02*
X38201600Y-23137600D01*
X38250000Y-30800000D02*
X38252400Y-30797600D01*
X38252400Y-30797600D02*
X38252400Y-27533600D01*
X38252400Y-27533600D02*
X38201600Y-27482800D01*
D32*
%TO.N,/PD1*%
X48483456Y-34900000D02*
X49700000Y-33683456D01*
X48184000Y-28198944D02*
X48184000Y-23120000D01*
X49700000Y-33683456D02*
X49700000Y-29714944D01*
X47150000Y-34900000D02*
X48483456Y-34900000D01*
X49700000Y-29714944D02*
X48184000Y-28198944D01*
D34*
%TO.N,/PD7*%
X43184000Y-27294208D02*
X43184000Y-23120000D01*
X42250000Y-30800000D02*
X42250000Y-28228208D01*
X42250000Y-28228208D02*
X43184000Y-27294208D01*
D32*
%TO.N,/PF5*%
X33187472Y-25958800D02*
X34523344Y-25958800D01*
X32074850Y-34456866D02*
X32074850Y-27071422D01*
X33317984Y-35700000D02*
X32074850Y-34456866D01*
X35750000Y-35700000D02*
X33317984Y-35700000D01*
X34523344Y-25958800D02*
X35184000Y-25298144D01*
X35184000Y-25298144D02*
X35184000Y-23120000D01*
X32074850Y-27071422D02*
X33187472Y-25958800D01*
%TO.N,/PF4*%
X33269456Y-36500000D02*
X31474850Y-34705394D01*
X34184000Y-25201200D02*
X34184000Y-23120000D01*
X34026400Y-25358800D02*
X34184000Y-25201200D01*
X31474850Y-26822894D02*
X32938944Y-25358800D01*
X31474850Y-34705394D02*
X31474850Y-26822894D01*
X32938944Y-25358800D02*
X34026400Y-25358800D01*
X35750000Y-36500000D02*
X33269456Y-36500000D01*
%TO.N,/PF1*%
X33000800Y-24758800D02*
X33184000Y-24575600D01*
X32690416Y-24758800D02*
X33000800Y-24758800D01*
X35750000Y-37300000D02*
X33220928Y-37300000D01*
X33184000Y-24575600D02*
X33184000Y-23120000D01*
X33220928Y-37300000D02*
X30874850Y-34953922D01*
X30874850Y-34953922D02*
X30874850Y-26574366D01*
X30874850Y-26574366D02*
X32690416Y-24758800D01*
D34*
%TO.N,/PB5*%
X40650000Y-30800000D02*
X40650000Y-28018016D01*
X40650000Y-28018016D02*
X41184000Y-27484016D01*
X41184000Y-27484016D02*
X41184000Y-23120000D01*
D32*
%TO.N,/PE6*%
X29591000Y-41966000D02*
X29591000Y-24713000D01*
X29825000Y-42200000D02*
X29591000Y-41966000D01*
X29591000Y-24713000D02*
X31184000Y-23120000D01*
X37450000Y-42200000D02*
X29825000Y-42200000D01*
%TO.N,/PD0*%
X50300000Y-33931984D02*
X50300000Y-29466416D01*
X49184000Y-28350416D02*
X49184000Y-23120000D01*
X48531984Y-35700000D02*
X50300000Y-33931984D01*
X47150000Y-35700000D02*
X48531984Y-35700000D01*
X50300000Y-29466416D02*
X49184000Y-28350416D01*
%TO.N,/PB0*%
X49050000Y-44100000D02*
X45590000Y-40640000D01*
X51184000Y-23120000D02*
X51184000Y-25784000D01*
X53121000Y-27721000D02*
X57188720Y-27721000D01*
X57188720Y-27721000D02*
X58744000Y-29276280D01*
X45590000Y-40640000D02*
X43585000Y-40640000D01*
X51184000Y-25784000D02*
X53121000Y-27721000D01*
X43050000Y-41175000D02*
X43050000Y-42200000D01*
X58744000Y-29276280D02*
X58744000Y-43503254D01*
X58744000Y-43503254D02*
X58147254Y-44100000D01*
X43585000Y-40640000D02*
X43050000Y-41175000D01*
X58147254Y-44100000D02*
X49050000Y-44100000D01*
%TO.N,/PF7*%
X33274850Y-27570084D02*
X33666934Y-27178000D01*
X35750000Y-34100000D02*
X33415040Y-34100000D01*
X37184000Y-24995200D02*
X37184000Y-23120000D01*
X33274850Y-33959810D02*
X33274850Y-27570084D01*
X33666934Y-27178000D02*
X35001200Y-27178000D01*
X33415040Y-34100000D02*
X33274850Y-33959810D01*
X35001200Y-27178000D02*
X37184000Y-24995200D01*
D34*
%TO.N,/PD4*%
X43850000Y-30800000D02*
X43850000Y-28438400D01*
X45184000Y-27104400D02*
X45184000Y-23120000D01*
X43850000Y-28438400D02*
X45184000Y-27104400D01*
D32*
%TO.N,/PB7*%
X47150000Y-40500000D02*
X48250000Y-40500000D01*
X57898726Y-43500000D02*
X58144000Y-43254726D01*
X48250000Y-40500000D02*
X51250000Y-43500000D01*
X56940192Y-28321000D02*
X52705000Y-28321000D01*
X52705000Y-28321000D02*
X50184000Y-25800000D01*
X58144000Y-29524808D02*
X56940192Y-28321000D01*
X51250000Y-43500000D02*
X57898726Y-43500000D01*
X58144000Y-43254726D02*
X58144000Y-29524808D01*
X50184000Y-25800000D02*
X50184000Y-23120000D01*
D34*
%TO.N,/PB4*%
X41450000Y-28123112D02*
X42184000Y-27389112D01*
X41450000Y-30800000D02*
X41450000Y-28123112D01*
X42184000Y-27389112D02*
X42184000Y-23120000D01*
%TO.N,/PC6*%
X39184000Y-27465600D02*
X39184000Y-23120000D01*
X39050000Y-27599600D02*
X39184000Y-27465600D01*
X39050000Y-30800000D02*
X39050000Y-27599600D01*
D32*
%TO.N,/PF0*%
X30274850Y-35202450D02*
X30274850Y-26325838D01*
X32184000Y-24416688D02*
X32184000Y-23120000D01*
X33172400Y-38100000D02*
X30274850Y-35202450D01*
X35750000Y-38100000D02*
X33172400Y-38100000D01*
X30274850Y-26325838D02*
X32184000Y-24416688D01*
D34*
%TO.N,/PD6*%
X44184000Y-27199304D02*
X44184000Y-23120000D01*
X43050000Y-30800000D02*
X43050000Y-28333304D01*
X43050000Y-28333304D02*
X44184000Y-27199304D01*
D32*
%TO.N,/PF6*%
X32674850Y-27319950D02*
X33416800Y-26578000D01*
X33416800Y-26578000D02*
X34752672Y-26578000D01*
X34752672Y-26578000D02*
X36184000Y-25146672D01*
X36184000Y-25146672D02*
X36184000Y-23120000D01*
X33366512Y-34900000D02*
X32674850Y-34208338D01*
X32674850Y-34208338D02*
X32674850Y-27319950D01*
X35750000Y-34900000D02*
X33366512Y-34900000D01*
%TO.N,GNDPWR*%
X26750000Y-50250000D02*
X24600000Y-50250000D01*
X24600000Y-50250000D02*
X24600000Y-47650000D01*
X24600000Y-47650000D02*
X24600000Y-45350000D01*
X30554000Y-52284000D02*
X30529000Y-52259000D01*
X27500000Y-49500000D02*
X26750000Y-50250000D01*
X30245000Y-49500000D02*
X27500000Y-49500000D01*
X30529000Y-49784000D02*
X30245000Y-49500000D01*
X24600000Y-45350000D02*
X24600000Y-42750000D01*
X30529000Y-52259000D02*
X30529000Y-49784000D01*
D33*
%TO.N,VBUS*%
X27432000Y-39432000D02*
X28500000Y-40500000D01*
X29000000Y-45000000D02*
X28800000Y-45200000D01*
X28500000Y-42500000D02*
X29000000Y-43000000D01*
X27432000Y-37490500D02*
X27432000Y-39432000D01*
X28500000Y-40500000D02*
X28500000Y-42500000D01*
X28800000Y-45200000D02*
X27450000Y-45200000D01*
X29000000Y-43000000D02*
X29000000Y-45000000D01*
%TD*%
%TA.AperFunction,Conductor*%
%TO.N,GNDPWR*%
G36*
X23101372Y-41365685D02*
G01*
X23147127Y-41418489D01*
X23156669Y-41484852D01*
X23157231Y-41484913D01*
X23156994Y-41487113D01*
X23157071Y-41487647D01*
X23156761Y-41489282D01*
X23150000Y-41552155D01*
X23150000Y-42500000D01*
X26050000Y-42500000D01*
X26050000Y-41552172D01*
X26049999Y-41552155D01*
X26042769Y-41484913D01*
X26045729Y-41484594D01*
X26048743Y-41428710D01*
X26089628Y-41372051D01*
X26154654Y-41346490D01*
X26165667Y-41346000D01*
X27775500Y-41346000D01*
X27842539Y-41365685D01*
X27888294Y-41418489D01*
X27899500Y-41470000D01*
X27899500Y-42413330D01*
X27899499Y-42413348D01*
X27899499Y-42579054D01*
X27899498Y-42579054D01*
X27899499Y-42579057D01*
X27940423Y-42731785D01*
X27961457Y-42768216D01*
X28000139Y-42835216D01*
X28019479Y-42868715D01*
X28131285Y-42980521D01*
X28363181Y-43212416D01*
X28396666Y-43273739D01*
X28399500Y-43300097D01*
X28399500Y-44383131D01*
X28379815Y-44450170D01*
X28327011Y-44495925D01*
X28262246Y-44506421D01*
X28255756Y-44505723D01*
X28197873Y-44499500D01*
X28197865Y-44499500D01*
X26702129Y-44499500D01*
X26702123Y-44499501D01*
X26642516Y-44505908D01*
X26507671Y-44556202D01*
X26507664Y-44556206D01*
X26392455Y-44642452D01*
X26392452Y-44642455D01*
X26306206Y-44757664D01*
X26306202Y-44757671D01*
X26290182Y-44800625D01*
X26248311Y-44856559D01*
X26182847Y-44880976D01*
X26114574Y-44866124D01*
X26065168Y-44816719D01*
X26050000Y-44757292D01*
X26050000Y-44402172D01*
X26049999Y-44402155D01*
X26043598Y-44342627D01*
X26043595Y-44342616D01*
X25997240Y-44218334D01*
X25992255Y-44148643D01*
X25997240Y-44131666D01*
X26043595Y-44007383D01*
X26043598Y-44007372D01*
X26049999Y-43947844D01*
X26050000Y-43947827D01*
X26050000Y-43000000D01*
X24850000Y-43000000D01*
X24850000Y-50000000D01*
X26050000Y-50000000D01*
X26050000Y-49052172D01*
X26049999Y-49052155D01*
X26043598Y-48992627D01*
X26043595Y-48992616D01*
X25997240Y-48868334D01*
X25992255Y-48798643D01*
X25997240Y-48781666D01*
X26043595Y-48657383D01*
X26043598Y-48657372D01*
X26049999Y-48597844D01*
X26050000Y-48597827D01*
X26050000Y-48242707D01*
X26069685Y-48175668D01*
X26122489Y-48129913D01*
X26191647Y-48119969D01*
X26255203Y-48148994D01*
X26290182Y-48199375D01*
X26306201Y-48242326D01*
X26306206Y-48242335D01*
X26392452Y-48357544D01*
X26392455Y-48357547D01*
X26507664Y-48443793D01*
X26507671Y-48443797D01*
X26552618Y-48460561D01*
X26642517Y-48494091D01*
X26702127Y-48500500D01*
X27371004Y-48500499D01*
X27371018Y-48500500D01*
X27381007Y-48500500D01*
X28546000Y-48500500D01*
X28613039Y-48520185D01*
X28658794Y-48572989D01*
X28670000Y-48624500D01*
X28670000Y-53223500D01*
X28650315Y-53290539D01*
X28597511Y-53336294D01*
X28546000Y-53347500D01*
X22722500Y-53347500D01*
X22655461Y-53327815D01*
X22609706Y-53275011D01*
X22598500Y-53223500D01*
X22598500Y-51447844D01*
X23150000Y-51447844D01*
X23156401Y-51507372D01*
X23156403Y-51507379D01*
X23206645Y-51642086D01*
X23206649Y-51642093D01*
X23292809Y-51757187D01*
X23292812Y-51757190D01*
X23407906Y-51843350D01*
X23407913Y-51843354D01*
X23542620Y-51893596D01*
X23542627Y-51893598D01*
X23602155Y-51899999D01*
X23602172Y-51900000D01*
X24350000Y-51900000D01*
X24850000Y-51900000D01*
X25597828Y-51900000D01*
X25597844Y-51899999D01*
X25657372Y-51893598D01*
X25657379Y-51893596D01*
X25792086Y-51843354D01*
X25792093Y-51843350D01*
X25907187Y-51757190D01*
X25907190Y-51757187D01*
X25993350Y-51642093D01*
X25993354Y-51642086D01*
X26043596Y-51507379D01*
X26043598Y-51507372D01*
X26049999Y-51447844D01*
X26050000Y-51447827D01*
X26050000Y-50500000D01*
X24850000Y-50500000D01*
X24850000Y-51900000D01*
X24350000Y-51900000D01*
X24350000Y-50500000D01*
X23150000Y-50500000D01*
X23150000Y-51447844D01*
X22598500Y-51447844D01*
X22598500Y-48597844D01*
X23150000Y-48597844D01*
X23156401Y-48657372D01*
X23156403Y-48657380D01*
X23202759Y-48781667D01*
X23207743Y-48851359D01*
X23202759Y-48868333D01*
X23156403Y-48992619D01*
X23156401Y-48992627D01*
X23150000Y-49052155D01*
X23150000Y-50000000D01*
X24350000Y-50000000D01*
X24350000Y-47900000D01*
X23150000Y-47900000D01*
X23150000Y-48597844D01*
X22598500Y-48597844D01*
X22598500Y-46297844D01*
X23150000Y-46297844D01*
X23156401Y-46357372D01*
X23156403Y-46357383D01*
X23193434Y-46456668D01*
X23198418Y-46526360D01*
X23193434Y-46543332D01*
X23156403Y-46642616D01*
X23156401Y-46642627D01*
X23150000Y-46702155D01*
X23150000Y-47400000D01*
X24350000Y-47400000D01*
X24350000Y-45600000D01*
X23150000Y-45600000D01*
X23150000Y-46297844D01*
X22598500Y-46297844D01*
X22598500Y-43947844D01*
X23150000Y-43947844D01*
X23156401Y-44007372D01*
X23156403Y-44007380D01*
X23202759Y-44131667D01*
X23207743Y-44201359D01*
X23202759Y-44218333D01*
X23156403Y-44342619D01*
X23156401Y-44342627D01*
X23150000Y-44402155D01*
X23150000Y-45100000D01*
X24350000Y-45100000D01*
X24350000Y-43000000D01*
X23150000Y-43000000D01*
X23150000Y-43947844D01*
X22598500Y-43947844D01*
X22598500Y-41470000D01*
X22618185Y-41402961D01*
X22670989Y-41357206D01*
X22722500Y-41346000D01*
X23034333Y-41346000D01*
X23101372Y-41365685D01*
G37*
%TD.AperFunction*%
%TD*%
%TA.AperFunction,Conductor*%
%TO.N,GND*%
G36*
X62180539Y-17030185D02*
G01*
X62226294Y-17082989D01*
X62237500Y-17134500D01*
X62237500Y-26500000D01*
X59560529Y-26500000D01*
X58401883Y-25341353D01*
X58401881Y-25341351D01*
X58394541Y-25336447D01*
X58380420Y-25327012D01*
X58283873Y-25262501D01*
X58190647Y-25223886D01*
X58184664Y-25221407D01*
X58184661Y-25221406D01*
X58152753Y-25208189D01*
X58152743Y-25208186D01*
X58013555Y-25180500D01*
X58013551Y-25180500D01*
X55028500Y-25180500D01*
X54961461Y-25160815D01*
X54915706Y-25108011D01*
X54904500Y-25056500D01*
X54904500Y-24441401D01*
X54924185Y-24374362D01*
X54929234Y-24367089D01*
X54932796Y-24362331D01*
X54947431Y-24323094D01*
X54953174Y-24307693D01*
X54983091Y-24227483D01*
X54989500Y-24167873D01*
X54989499Y-22167844D01*
X55334000Y-22167844D01*
X55340401Y-22227372D01*
X55340403Y-22227379D01*
X55390645Y-22362086D01*
X55390649Y-22362093D01*
X55476809Y-22477187D01*
X55476812Y-22477190D01*
X55591906Y-22563350D01*
X55591913Y-22563354D01*
X55726620Y-22613596D01*
X55726627Y-22613598D01*
X55786155Y-22619999D01*
X55786172Y-22620000D01*
X56924000Y-22620000D01*
X57424000Y-22620000D01*
X58561828Y-22620000D01*
X58561844Y-22619999D01*
X58621372Y-22613598D01*
X58621379Y-22613596D01*
X58756086Y-22563354D01*
X58756093Y-22563350D01*
X58871187Y-22477190D01*
X58871190Y-22477187D01*
X58957350Y-22362093D01*
X58957354Y-22362086D01*
X59007596Y-22227379D01*
X59007598Y-22227372D01*
X59013999Y-22167844D01*
X59014000Y-22167827D01*
X59014000Y-20570000D01*
X57424000Y-20570000D01*
X57424000Y-22620000D01*
X56924000Y-22620000D01*
X56924000Y-20570000D01*
X55334000Y-20570000D01*
X55334000Y-22167844D01*
X54989499Y-22167844D01*
X54989499Y-22072128D01*
X54983091Y-22012517D01*
X54932796Y-21877669D01*
X54932795Y-21877668D01*
X54932793Y-21877664D01*
X54846547Y-21762455D01*
X54846544Y-21762452D01*
X54731335Y-21676206D01*
X54731328Y-21676202D01*
X54596486Y-21625910D01*
X54596485Y-21625909D01*
X54596483Y-21625909D01*
X54536873Y-21619500D01*
X54536863Y-21619500D01*
X53831129Y-21619500D01*
X53831123Y-21619501D01*
X53771516Y-21625908D01*
X53727332Y-21642388D01*
X53657640Y-21647372D01*
X53640668Y-21642388D01*
X53596488Y-21625910D01*
X53596484Y-21625909D01*
X53596483Y-21625909D01*
X53536873Y-21619500D01*
X53536863Y-21619500D01*
X52831129Y-21619500D01*
X52831123Y-21619501D01*
X52771516Y-21625908D01*
X52727332Y-21642388D01*
X52657640Y-21647372D01*
X52640668Y-21642388D01*
X52596488Y-21625910D01*
X52596484Y-21625909D01*
X52596483Y-21625909D01*
X52536873Y-21619500D01*
X52536863Y-21619500D01*
X51831129Y-21619500D01*
X51831123Y-21619501D01*
X51771516Y-21625908D01*
X51727332Y-21642388D01*
X51657640Y-21647372D01*
X51640668Y-21642388D01*
X51596488Y-21625910D01*
X51596484Y-21625909D01*
X51596483Y-21625909D01*
X51536873Y-21619500D01*
X51536863Y-21619500D01*
X50831129Y-21619500D01*
X50831123Y-21619501D01*
X50771516Y-21625908D01*
X50727332Y-21642388D01*
X50657640Y-21647372D01*
X50640668Y-21642388D01*
X50596488Y-21625910D01*
X50596484Y-21625909D01*
X50596483Y-21625909D01*
X50536873Y-21619500D01*
X50536863Y-21619500D01*
X49831129Y-21619500D01*
X49831123Y-21619501D01*
X49771516Y-21625908D01*
X49727332Y-21642388D01*
X49657640Y-21647372D01*
X49640668Y-21642388D01*
X49596488Y-21625910D01*
X49596484Y-21625909D01*
X49596483Y-21625909D01*
X49536873Y-21619500D01*
X49536863Y-21619500D01*
X48831129Y-21619500D01*
X48831123Y-21619501D01*
X48771516Y-21625908D01*
X48727332Y-21642388D01*
X48657640Y-21647372D01*
X48640668Y-21642388D01*
X48596488Y-21625910D01*
X48596484Y-21625909D01*
X48596483Y-21625909D01*
X48536873Y-21619500D01*
X48536863Y-21619500D01*
X47831129Y-21619500D01*
X47831123Y-21619501D01*
X47771516Y-21625908D01*
X47727332Y-21642388D01*
X47657640Y-21647372D01*
X47640668Y-21642388D01*
X47596488Y-21625910D01*
X47596484Y-21625909D01*
X47596483Y-21625909D01*
X47536873Y-21619500D01*
X47536863Y-21619500D01*
X46831129Y-21619500D01*
X46831123Y-21619501D01*
X46771516Y-21625908D01*
X46727332Y-21642388D01*
X46657640Y-21647372D01*
X46640668Y-21642388D01*
X46596488Y-21625910D01*
X46596484Y-21625909D01*
X46596483Y-21625909D01*
X46536873Y-21619500D01*
X46536863Y-21619500D01*
X45831129Y-21619500D01*
X45831123Y-21619501D01*
X45771516Y-21625908D01*
X45727332Y-21642388D01*
X45657640Y-21647372D01*
X45640668Y-21642388D01*
X45596488Y-21625910D01*
X45596484Y-21625909D01*
X45596483Y-21625909D01*
X45536873Y-21619500D01*
X45536863Y-21619500D01*
X44831129Y-21619500D01*
X44831123Y-21619501D01*
X44771516Y-21625908D01*
X44727332Y-21642388D01*
X44657640Y-21647372D01*
X44640668Y-21642388D01*
X44596488Y-21625910D01*
X44596484Y-21625909D01*
X44596483Y-21625909D01*
X44536873Y-21619500D01*
X44536863Y-21619500D01*
X43831129Y-21619500D01*
X43831123Y-21619501D01*
X43771516Y-21625908D01*
X43727332Y-21642388D01*
X43657640Y-21647372D01*
X43640668Y-21642388D01*
X43596488Y-21625910D01*
X43596484Y-21625909D01*
X43596483Y-21625909D01*
X43536873Y-21619500D01*
X43536863Y-21619500D01*
X42831129Y-21619500D01*
X42831123Y-21619501D01*
X42771516Y-21625908D01*
X42727332Y-21642388D01*
X42657640Y-21647372D01*
X42640668Y-21642388D01*
X42596488Y-21625910D01*
X42596484Y-21625909D01*
X42596483Y-21625909D01*
X42536873Y-21619500D01*
X42536863Y-21619500D01*
X41831129Y-21619500D01*
X41831123Y-21619501D01*
X41771516Y-21625908D01*
X41727332Y-21642388D01*
X41657640Y-21647372D01*
X41640668Y-21642388D01*
X41596488Y-21625910D01*
X41596484Y-21625909D01*
X41596483Y-21625909D01*
X41536873Y-21619500D01*
X41536863Y-21619500D01*
X40831129Y-21619500D01*
X40831123Y-21619501D01*
X40771516Y-21625908D01*
X40727332Y-21642388D01*
X40657640Y-21647372D01*
X40640668Y-21642388D01*
X40596488Y-21625910D01*
X40596484Y-21625909D01*
X40596483Y-21625909D01*
X40536873Y-21619500D01*
X40536863Y-21619500D01*
X39831129Y-21619500D01*
X39831123Y-21619501D01*
X39771516Y-21625908D01*
X39727332Y-21642388D01*
X39657640Y-21647372D01*
X39640668Y-21642388D01*
X39596488Y-21625910D01*
X39596484Y-21625909D01*
X39596483Y-21625909D01*
X39536873Y-21619500D01*
X39536863Y-21619500D01*
X38831129Y-21619500D01*
X38831123Y-21619501D01*
X38771516Y-21625908D01*
X38727332Y-21642388D01*
X38657640Y-21647372D01*
X38640668Y-21642388D01*
X38596488Y-21625910D01*
X38596484Y-21625909D01*
X38596483Y-21625909D01*
X38536873Y-21619500D01*
X38536863Y-21619500D01*
X37831129Y-21619500D01*
X37831123Y-21619501D01*
X37771516Y-21625908D01*
X37727332Y-21642388D01*
X37657640Y-21647372D01*
X37640668Y-21642388D01*
X37596488Y-21625910D01*
X37596484Y-21625909D01*
X37596483Y-21625909D01*
X37536873Y-21619500D01*
X37536863Y-21619500D01*
X36831129Y-21619500D01*
X36831123Y-21619501D01*
X36771516Y-21625908D01*
X36727332Y-21642388D01*
X36657640Y-21647372D01*
X36640668Y-21642388D01*
X36596488Y-21625910D01*
X36596484Y-21625909D01*
X36596483Y-21625909D01*
X36536873Y-21619500D01*
X36536863Y-21619500D01*
X35831129Y-21619500D01*
X35831123Y-21619501D01*
X35771516Y-21625908D01*
X35727332Y-21642388D01*
X35657640Y-21647372D01*
X35640668Y-21642388D01*
X35596488Y-21625910D01*
X35596484Y-21625909D01*
X35596483Y-21625909D01*
X35536873Y-21619500D01*
X35536863Y-21619500D01*
X34831129Y-21619500D01*
X34831123Y-21619501D01*
X34771516Y-21625908D01*
X34727332Y-21642388D01*
X34657640Y-21647372D01*
X34640668Y-21642388D01*
X34596488Y-21625910D01*
X34596484Y-21625909D01*
X34596483Y-21625909D01*
X34536873Y-21619500D01*
X34536863Y-21619500D01*
X33831129Y-21619500D01*
X33831123Y-21619501D01*
X33771516Y-21625908D01*
X33727332Y-21642388D01*
X33657640Y-21647372D01*
X33640668Y-21642388D01*
X33596488Y-21625910D01*
X33596484Y-21625909D01*
X33596483Y-21625909D01*
X33536873Y-21619500D01*
X33536863Y-21619500D01*
X32831129Y-21619500D01*
X32831123Y-21619501D01*
X32771516Y-21625908D01*
X32727332Y-21642388D01*
X32657640Y-21647372D01*
X32640668Y-21642388D01*
X32596488Y-21625910D01*
X32596484Y-21625909D01*
X32596483Y-21625909D01*
X32536873Y-21619500D01*
X32536863Y-21619500D01*
X31831129Y-21619500D01*
X31831123Y-21619501D01*
X31771516Y-21625908D01*
X31727332Y-21642388D01*
X31657640Y-21647372D01*
X31640668Y-21642388D01*
X31596488Y-21625910D01*
X31596484Y-21625909D01*
X31596483Y-21625909D01*
X31536873Y-21619500D01*
X31536863Y-21619500D01*
X30831129Y-21619500D01*
X30831123Y-21619501D01*
X30771516Y-21625908D01*
X30636671Y-21676202D01*
X30636664Y-21676206D01*
X30521455Y-21762452D01*
X30521452Y-21762455D01*
X30435206Y-21877664D01*
X30435202Y-21877671D01*
X30384908Y-22012517D01*
X30378501Y-22072116D01*
X30378501Y-22072123D01*
X30378500Y-22072135D01*
X30378500Y-22883480D01*
X30358815Y-22950519D01*
X30342181Y-22971161D01*
X29046888Y-24266453D01*
X29046887Y-24266454D01*
X28970222Y-24381192D01*
X28917421Y-24508667D01*
X28917418Y-24508679D01*
X28898745Y-24602557D01*
X28898745Y-24602560D01*
X28890500Y-24644006D01*
X28890500Y-25015437D01*
X28870815Y-25082476D01*
X28818011Y-25128231D01*
X28748853Y-25138175D01*
X28685297Y-25109150D01*
X28660962Y-25080535D01*
X28649317Y-25061656D01*
X28525345Y-24937684D01*
X28376124Y-24845643D01*
X28376119Y-24845641D01*
X28209697Y-24790494D01*
X28209690Y-24790493D01*
X28106986Y-24780000D01*
X27682000Y-24780000D01*
X27682000Y-25781000D01*
X27662315Y-25848039D01*
X27609511Y-25893794D01*
X27558000Y-25905000D01*
X27432000Y-25905000D01*
X27432000Y-26031000D01*
X27412315Y-26098039D01*
X27359511Y-26143794D01*
X27308000Y-26155000D01*
X26057001Y-26155000D01*
X26057001Y-26329986D01*
X26067493Y-26432695D01*
X26084706Y-26484637D01*
X26085156Y-26487430D01*
X26085977Y-26488707D01*
X26087601Y-26500000D01*
X22598500Y-26500000D01*
X22598500Y-25480013D01*
X26057000Y-25480013D01*
X26057000Y-25655000D01*
X27182000Y-25655000D01*
X27182000Y-24780000D01*
X26757028Y-24780000D01*
X26757012Y-24780001D01*
X26654302Y-24790494D01*
X26487880Y-24845641D01*
X26487875Y-24845643D01*
X26338654Y-24937684D01*
X26214684Y-25061654D01*
X26122643Y-25210875D01*
X26122641Y-25210880D01*
X26067494Y-25377302D01*
X26067493Y-25377309D01*
X26057000Y-25480013D01*
X22598500Y-25480013D01*
X22598500Y-24323094D01*
X22905675Y-24323094D01*
X25777962Y-24323094D01*
X25777962Y-22167844D01*
X26354000Y-22167844D01*
X26360401Y-22227372D01*
X26360403Y-22227379D01*
X26410645Y-22362086D01*
X26410649Y-22362093D01*
X26496809Y-22477187D01*
X26496812Y-22477190D01*
X26611906Y-22563350D01*
X26611913Y-22563354D01*
X26746620Y-22613596D01*
X26746627Y-22613598D01*
X26806155Y-22619999D01*
X26806172Y-22620000D01*
X27944000Y-22620000D01*
X28444000Y-22620000D01*
X29581828Y-22620000D01*
X29581844Y-22619999D01*
X29641372Y-22613598D01*
X29641379Y-22613596D01*
X29776086Y-22563354D01*
X29776093Y-22563350D01*
X29891187Y-22477190D01*
X29891190Y-22477187D01*
X29977350Y-22362093D01*
X29977354Y-22362086D01*
X30027596Y-22227379D01*
X30027598Y-22227372D01*
X30033999Y-22167844D01*
X30034000Y-22167827D01*
X30034000Y-20570000D01*
X28444000Y-20570000D01*
X28444000Y-22620000D01*
X27944000Y-22620000D01*
X27944000Y-20570000D01*
X26354000Y-20570000D01*
X26354000Y-22167844D01*
X25777962Y-22167844D01*
X25777962Y-18472155D01*
X26354000Y-18472155D01*
X26354000Y-20070000D01*
X27944000Y-20070000D01*
X28444000Y-20070000D01*
X30034000Y-20070000D01*
X30034000Y-18472172D01*
X30033999Y-18472155D01*
X55334000Y-18472155D01*
X55334000Y-20070000D01*
X56924000Y-20070000D01*
X57424000Y-20070000D01*
X59014000Y-20070000D01*
X59014000Y-18472172D01*
X59013999Y-18472155D01*
X59007598Y-18412627D01*
X59007596Y-18412620D01*
X58957354Y-18277913D01*
X58957350Y-18277906D01*
X58871190Y-18162812D01*
X58871187Y-18162809D01*
X58756093Y-18076649D01*
X58756086Y-18076645D01*
X58621379Y-18026403D01*
X58621372Y-18026401D01*
X58561844Y-18020000D01*
X57424000Y-18020000D01*
X57424000Y-20070000D01*
X56924000Y-20070000D01*
X56924000Y-18020000D01*
X55786155Y-18020000D01*
X55726627Y-18026401D01*
X55726620Y-18026403D01*
X55591913Y-18076645D01*
X55591906Y-18076649D01*
X55476812Y-18162809D01*
X55476809Y-18162812D01*
X55390649Y-18277906D01*
X55390645Y-18277913D01*
X55340403Y-18412620D01*
X55340401Y-18412627D01*
X55334000Y-18472155D01*
X30033999Y-18472155D01*
X30027598Y-18412627D01*
X30027596Y-18412620D01*
X29977354Y-18277913D01*
X29977350Y-18277906D01*
X29891190Y-18162812D01*
X29891187Y-18162809D01*
X29776093Y-18076649D01*
X29776086Y-18076645D01*
X29641379Y-18026403D01*
X29641372Y-18026401D01*
X29581844Y-18020000D01*
X28444000Y-18020000D01*
X28444000Y-20070000D01*
X27944000Y-20070000D01*
X27944000Y-18020000D01*
X26806155Y-18020000D01*
X26746627Y-18026401D01*
X26746620Y-18026403D01*
X26611913Y-18076645D01*
X26611906Y-18076649D01*
X26496812Y-18162809D01*
X26496809Y-18162812D01*
X26410649Y-18277906D01*
X26410645Y-18277913D01*
X26360403Y-18412620D01*
X26360401Y-18412627D01*
X26354000Y-18472155D01*
X25777962Y-18472155D01*
X25777962Y-17537850D01*
X22905675Y-17537850D01*
X22905675Y-24323094D01*
X22598500Y-24323094D01*
X22598500Y-17134500D01*
X22618185Y-17067461D01*
X22670989Y-17021706D01*
X22722500Y-17010500D01*
X62113500Y-17010500D01*
X62180539Y-17030185D01*
G37*
%TD.AperFunction*%
%TD*%
%TA.AperFunction,Conductor*%
%TO.N,GND*%
G36*
X26091000Y-28084768D02*
G01*
X26084706Y-28123772D01*
X26067001Y-28177201D01*
X26056500Y-28279983D01*
X26056500Y-29130001D01*
X26056501Y-29130019D01*
X26067000Y-29232796D01*
X26084706Y-29286226D01*
X26091000Y-29325231D01*
X26091000Y-40587000D01*
X26071315Y-40654039D01*
X26018511Y-40699794D01*
X25967000Y-40711000D01*
X22722500Y-40711000D01*
X22655461Y-40691315D01*
X22609706Y-40638511D01*
X22598500Y-40587000D01*
X22598500Y-26500000D01*
X26091000Y-26500000D01*
X26091000Y-28084768D01*
G37*
%TD.AperFunction*%
%TD*%
%TA.AperFunction,Conductor*%
%TO.N,GND*%
G36*
X62237500Y-39000000D02*
G01*
X61284500Y-39000000D01*
X61284500Y-28451448D01*
X61284499Y-28451447D01*
X61275654Y-28406977D01*
X61256812Y-28312250D01*
X61224859Y-28235110D01*
X61202499Y-28181127D01*
X61202497Y-28181125D01*
X61202497Y-28181123D01*
X61123650Y-28063121D01*
X61123649Y-28063120D01*
X61023292Y-27962763D01*
X59560529Y-26500000D01*
X62237500Y-26500000D01*
X62237500Y-39000000D01*
G37*
%TD.AperFunction*%
%TD*%
%TA.AperFunction,Conductor*%
%TO.N,GND*%
G36*
X35021482Y-49107185D02*
G01*
X35067237Y-49159989D01*
X35077181Y-49229147D01*
X35059982Y-49276597D01*
X34987643Y-49393875D01*
X34987641Y-49393880D01*
X34932494Y-49560302D01*
X34932493Y-49560309D01*
X34922000Y-49663013D01*
X34922000Y-49788000D01*
X37796638Y-49788000D01*
X37810260Y-49792000D01*
X39644869Y-49792000D01*
X39647004Y-49790834D01*
X39673362Y-49788000D01*
X41024000Y-49788000D01*
X41091039Y-49807685D01*
X41136794Y-49860489D01*
X41148000Y-49912000D01*
X41148000Y-50038000D01*
X41274000Y-50038000D01*
X41341039Y-50057685D01*
X41386794Y-50110489D01*
X41398000Y-50162000D01*
X41398000Y-51112999D01*
X41847972Y-51112999D01*
X41847986Y-51112998D01*
X41950695Y-51102506D01*
X42016995Y-51080536D01*
X42086824Y-51078134D01*
X42146866Y-51113865D01*
X42178059Y-51176385D01*
X42180000Y-51198237D01*
X42180000Y-51218968D01*
X42180001Y-51218987D01*
X42190494Y-51321697D01*
X42245641Y-51488119D01*
X42245643Y-51488124D01*
X42337684Y-51637345D01*
X42461654Y-51761315D01*
X42610875Y-51853356D01*
X42610880Y-51853358D01*
X42777302Y-51908505D01*
X42777309Y-51908506D01*
X42880019Y-51918999D01*
X42929999Y-51918998D01*
X42930000Y-51918998D01*
X42930000Y-50543000D01*
X42949685Y-50475961D01*
X43002489Y-50430206D01*
X43054000Y-50419000D01*
X43306000Y-50419000D01*
X43373039Y-50438685D01*
X43418794Y-50491489D01*
X43430000Y-50543000D01*
X43430000Y-51918999D01*
X43479972Y-51918999D01*
X43479986Y-51918998D01*
X43582697Y-51908505D01*
X43749125Y-51853356D01*
X43812924Y-51814003D01*
X43880315Y-51795561D01*
X43943117Y-51814000D01*
X44007666Y-51853814D01*
X44174203Y-51908999D01*
X44276991Y-51919500D01*
X44877008Y-51919499D01*
X44877016Y-51919498D01*
X44877019Y-51919498D01*
X44959748Y-51911047D01*
X44979797Y-51908999D01*
X45107450Y-51866698D01*
X45118418Y-51866321D01*
X45128388Y-51861728D01*
X45152718Y-51865141D01*
X45177276Y-51864297D01*
X45186709Y-51869910D01*
X45197580Y-51871436D01*
X45216201Y-51887461D01*
X45237318Y-51900028D01*
X45243608Y-51911047D01*
X45250539Y-51917012D01*
X45259208Y-51938376D01*
X45265310Y-51949066D01*
X45266950Y-51954582D01*
X45281188Y-52026162D01*
X45303685Y-52080474D01*
X45306146Y-52086416D01*
X45306149Y-52086425D01*
X45335497Y-52157278D01*
X45335504Y-52157291D01*
X45407833Y-52265539D01*
X45414345Y-52275285D01*
X45414350Y-52275290D01*
X45414351Y-52275292D01*
X46037351Y-52898292D01*
X46098032Y-52958973D01*
X46137709Y-52998650D01*
X46255710Y-53077496D01*
X46255711Y-53077496D01*
X46255715Y-53077499D01*
X46331620Y-53108939D01*
X46386023Y-53152779D01*
X46408089Y-53219073D01*
X46390810Y-53286772D01*
X46339674Y-53334383D01*
X46284168Y-53347500D01*
X34608020Y-53347500D01*
X34540981Y-53327815D01*
X34495226Y-53275011D01*
X34485282Y-53205853D01*
X34490314Y-53184496D01*
X34531005Y-53061697D01*
X34531006Y-53061690D01*
X34541499Y-52958986D01*
X34541500Y-52958973D01*
X34541500Y-52534000D01*
X33603000Y-52534000D01*
X33535961Y-52514315D01*
X33500000Y-52472813D01*
X33500000Y-52034000D01*
X33729000Y-52034000D01*
X34541499Y-52034000D01*
X34541499Y-51609028D01*
X34541498Y-51609013D01*
X34531005Y-51506302D01*
X34475858Y-51339880D01*
X34475856Y-51339875D01*
X34383815Y-51190654D01*
X34333592Y-51140431D01*
X34300107Y-51079108D01*
X34305091Y-51009416D01*
X34333592Y-50965069D01*
X34396315Y-50902345D01*
X34488356Y-50753124D01*
X34488358Y-50753119D01*
X34543505Y-50586697D01*
X34543506Y-50586690D01*
X34553999Y-50483986D01*
X34554000Y-50483973D01*
X34554000Y-50412986D01*
X34922001Y-50412986D01*
X34932494Y-50515697D01*
X34987641Y-50682119D01*
X34987643Y-50682124D01*
X35079684Y-50831345D01*
X35203654Y-50955315D01*
X35352875Y-51047356D01*
X35352880Y-51047358D01*
X35519302Y-51102505D01*
X35519309Y-51102506D01*
X35622019Y-51112999D01*
X36071999Y-51112999D01*
X36572000Y-51112999D01*
X37021972Y-51112999D01*
X37021986Y-51112998D01*
X37124697Y-51102505D01*
X37291119Y-51047358D01*
X37291124Y-51047356D01*
X37440345Y-50955315D01*
X37457569Y-50938092D01*
X37518892Y-50904607D01*
X37588584Y-50909591D01*
X37632931Y-50938092D01*
X37641654Y-50946815D01*
X37790875Y-51038856D01*
X37790880Y-51038858D01*
X37957302Y-51094005D01*
X37957309Y-51094006D01*
X38060019Y-51104499D01*
X38484999Y-51104499D01*
X38485000Y-51104498D01*
X38485000Y-50292000D01*
X38985000Y-50292000D01*
X38985000Y-51104499D01*
X39409972Y-51104499D01*
X39409986Y-51104498D01*
X39512697Y-51094005D01*
X39679119Y-51038858D01*
X39679124Y-51038856D01*
X39828345Y-50946815D01*
X39837069Y-50938092D01*
X39898392Y-50904607D01*
X39968084Y-50909591D01*
X40012431Y-50938092D01*
X40029654Y-50955315D01*
X40178875Y-51047356D01*
X40178880Y-51047358D01*
X40345302Y-51102505D01*
X40345309Y-51102506D01*
X40448019Y-51112999D01*
X40897999Y-51112999D01*
X40898000Y-51112998D01*
X40898000Y-50288000D01*
X40213131Y-50288000D01*
X40210996Y-50289166D01*
X40184638Y-50292000D01*
X38985000Y-50292000D01*
X38485000Y-50292000D01*
X37285362Y-50292000D01*
X37271740Y-50288000D01*
X36572000Y-50288000D01*
X36572000Y-51112999D01*
X36071999Y-51112999D01*
X36072000Y-51112998D01*
X36072000Y-50288000D01*
X34922001Y-50288000D01*
X34922001Y-50412986D01*
X34554000Y-50412986D01*
X34554000Y-50034000D01*
X33729000Y-50034000D01*
X33729000Y-52034000D01*
X33500000Y-52034000D01*
X33500000Y-49589821D01*
X33551489Y-49545206D01*
X33603000Y-49534000D01*
X34553999Y-49534000D01*
X34553999Y-49211500D01*
X34573684Y-49144461D01*
X34626488Y-49098706D01*
X34677999Y-49087500D01*
X34954443Y-49087500D01*
X35021482Y-49107185D01*
G37*
%TD.AperFunction*%
%TA.AperFunction,Conductor*%
G36*
X40688773Y-43624184D02*
G01*
X40736384Y-43675321D01*
X40749500Y-43730826D01*
X40749500Y-44490480D01*
X40729815Y-44557519D01*
X40713181Y-44578161D01*
X40603888Y-44687453D01*
X40603887Y-44687454D01*
X40527222Y-44802192D01*
X40474421Y-44929667D01*
X40474418Y-44929679D01*
X40453205Y-45036326D01*
X40453205Y-45036329D01*
X40447500Y-45065006D01*
X40447500Y-45900837D01*
X40427815Y-45967876D01*
X40375011Y-46013631D01*
X40349459Y-46022089D01*
X40345207Y-46022999D01*
X40178668Y-46078185D01*
X40178663Y-46078187D01*
X40110642Y-46120143D01*
X40029344Y-46170288D01*
X40029342Y-46170289D01*
X40029340Y-46170291D01*
X39995223Y-46204408D01*
X39933900Y-46237893D01*
X39864208Y-46232907D01*
X39830634Y-46213994D01*
X39828345Y-46212184D01*
X39679124Y-46120143D01*
X39679119Y-46120141D01*
X39512697Y-46064994D01*
X39512690Y-46064993D01*
X39409986Y-46054500D01*
X38985000Y-46054500D01*
X38985000Y-46993000D01*
X38965315Y-47060039D01*
X38912511Y-47105794D01*
X38861000Y-47117000D01*
X38609000Y-47117000D01*
X38541961Y-47097315D01*
X38496206Y-47044511D01*
X38485000Y-46993000D01*
X38485000Y-46054500D01*
X38060028Y-46054500D01*
X38060012Y-46054501D01*
X37957302Y-46064994D01*
X37790880Y-46120141D01*
X37790875Y-46120143D01*
X37641647Y-46212188D01*
X37639359Y-46213998D01*
X37637495Y-46214749D01*
X37635509Y-46215975D01*
X37635299Y-46215635D01*
X37574562Y-46240134D01*
X37505921Y-46227088D01*
X37474775Y-46204407D01*
X37440657Y-46170289D01*
X37440656Y-46170288D01*
X37331825Y-46103161D01*
X37291336Y-46078187D01*
X37291331Y-46078185D01*
X37251520Y-46064993D01*
X37124797Y-46023001D01*
X37124795Y-46023000D01*
X37022016Y-46012500D01*
X35795516Y-46012500D01*
X35774269Y-46006261D01*
X35752181Y-46004681D01*
X35741398Y-45996609D01*
X35728477Y-45992815D01*
X35713976Y-45976081D01*
X35696248Y-45962809D01*
X35691541Y-45950188D01*
X35682722Y-45940011D01*
X35679570Y-45918092D01*
X35671832Y-45897344D01*
X35674694Y-45884184D01*
X35672778Y-45870853D01*
X35681977Y-45850708D01*
X35686685Y-45829071D01*
X35699953Y-45811346D01*
X35701803Y-45807297D01*
X35707799Y-45800856D01*
X35771839Y-45736815D01*
X35833162Y-45703333D01*
X35859518Y-45700500D01*
X38367524Y-45700500D01*
X38458568Y-45682389D01*
X38502856Y-45673580D01*
X38566597Y-45647177D01*
X38630335Y-45620777D01*
X38630336Y-45620776D01*
X38630339Y-45620775D01*
X38745071Y-45544114D01*
X40394114Y-43895071D01*
X40470775Y-43780339D01*
X40510939Y-43683373D01*
X40554779Y-43628970D01*
X40621073Y-43606905D01*
X40688773Y-43624184D01*
G37*
%TD.AperFunction*%
%TD*%
%TA.AperFunction,Conductor*%
%TO.N,GND*%
G36*
X43892539Y-33220185D02*
G01*
X43938294Y-33272989D01*
X43949500Y-33324500D01*
X43949500Y-38121269D01*
X43929815Y-38188308D01*
X43877011Y-38234063D01*
X43872953Y-38235830D01*
X43768190Y-38279223D01*
X43653454Y-38355887D01*
X41705887Y-40303454D01*
X41629224Y-40418190D01*
X41576421Y-40545666D01*
X41576420Y-40545672D01*
X41571381Y-40571007D01*
X41549500Y-40681004D01*
X41549500Y-40825500D01*
X41529815Y-40892539D01*
X41477011Y-40938294D01*
X41425500Y-40949500D01*
X41127130Y-40949500D01*
X41127123Y-40949501D01*
X41067516Y-40955908D01*
X40970264Y-40992182D01*
X40926931Y-41000000D01*
X40373069Y-41000000D01*
X40329736Y-40992182D01*
X40232486Y-40955910D01*
X40232485Y-40955909D01*
X40232483Y-40955909D01*
X40172873Y-40949500D01*
X40172863Y-40949500D01*
X39527129Y-40949500D01*
X39527120Y-40949501D01*
X39463248Y-40956367D01*
X39436742Y-40956367D01*
X39432483Y-40955909D01*
X39372873Y-40949500D01*
X39372867Y-40949500D01*
X39074500Y-40949500D01*
X39007461Y-40929815D01*
X38961706Y-40877011D01*
X38950500Y-40825500D01*
X38950500Y-40431004D01*
X38923581Y-40295677D01*
X38923580Y-40295676D01*
X38923580Y-40295672D01*
X38874478Y-40177128D01*
X38870778Y-40168195D01*
X38870771Y-40168182D01*
X38794114Y-40053458D01*
X38794111Y-40053454D01*
X38696545Y-39955888D01*
X38696541Y-39955885D01*
X38581817Y-39879228D01*
X38581804Y-39879221D01*
X38454332Y-39826421D01*
X38454322Y-39826418D01*
X38318995Y-39799500D01*
X38318993Y-39799500D01*
X37124000Y-39799500D01*
X37056961Y-39779815D01*
X37011206Y-39727011D01*
X37000000Y-39675500D01*
X37000000Y-39234167D01*
X37000427Y-39226188D01*
X37000322Y-39226183D01*
X37000497Y-39222898D01*
X37000500Y-39222873D01*
X37000499Y-38577128D01*
X37000498Y-38577127D01*
X37000321Y-38573805D01*
X37000426Y-38573799D01*
X37000000Y-38565836D01*
X37000000Y-38434167D01*
X37000427Y-38426188D01*
X37000322Y-38426183D01*
X37000497Y-38422898D01*
X37000500Y-38422873D01*
X37000499Y-37777128D01*
X37000498Y-37777127D01*
X37000321Y-37773805D01*
X37000426Y-37773799D01*
X37000000Y-37765836D01*
X37000000Y-37634167D01*
X37000427Y-37626188D01*
X37000322Y-37626183D01*
X37000497Y-37622898D01*
X37000500Y-37622873D01*
X37000499Y-36977128D01*
X37000498Y-36977127D01*
X37000321Y-36973805D01*
X37000426Y-36973799D01*
X37000000Y-36965836D01*
X37000000Y-36834167D01*
X37000427Y-36826188D01*
X37000322Y-36826183D01*
X37000497Y-36822898D01*
X37000500Y-36822873D01*
X37000499Y-36177128D01*
X37000498Y-36177127D01*
X37000321Y-36173805D01*
X37000426Y-36173799D01*
X37000000Y-36165836D01*
X37000000Y-36034167D01*
X37000427Y-36026188D01*
X37000322Y-36026183D01*
X37000497Y-36022898D01*
X37000500Y-36022873D01*
X37000499Y-35377128D01*
X37000498Y-35377127D01*
X37000321Y-35373805D01*
X37000426Y-35373799D01*
X37000000Y-35365836D01*
X37000000Y-35234167D01*
X37000427Y-35226188D01*
X37000322Y-35226183D01*
X37000497Y-35222898D01*
X37000500Y-35222873D01*
X37000499Y-34577128D01*
X37000498Y-34577127D01*
X37000321Y-34573805D01*
X37000426Y-34573799D01*
X37000000Y-34565836D01*
X37000000Y-34434167D01*
X37000427Y-34426188D01*
X37000322Y-34426183D01*
X37000497Y-34422898D01*
X37000500Y-34422873D01*
X37000499Y-33777128D01*
X37000498Y-33777127D01*
X37000321Y-33773805D01*
X37000426Y-33773799D01*
X37000000Y-33765836D01*
X37000000Y-33324500D01*
X37019685Y-33257461D01*
X37072489Y-33211706D01*
X37124000Y-33200500D01*
X43825500Y-33200500D01*
X43892539Y-33220185D01*
G37*
%TD.AperFunction*%
%TA.AperFunction,Conductor*%
G36*
X45847537Y-32019685D02*
G01*
X45893292Y-32072489D01*
X45903787Y-32137256D01*
X45899500Y-32177119D01*
X45899500Y-32822870D01*
X45899501Y-32822879D01*
X45906367Y-32886751D01*
X45906367Y-32913257D01*
X45905909Y-32917516D01*
X45905909Y-32917517D01*
X45899500Y-32977127D01*
X45899500Y-32977132D01*
X45899500Y-32977133D01*
X45899500Y-33622870D01*
X45899501Y-33622879D01*
X45906367Y-33686751D01*
X45906367Y-33713257D01*
X45905909Y-33717516D01*
X45905909Y-33717517D01*
X45899500Y-33777127D01*
X45899500Y-33777129D01*
X45899500Y-33777133D01*
X45899500Y-34422870D01*
X45899501Y-34422879D01*
X45906367Y-34486751D01*
X45906367Y-34513257D01*
X45905909Y-34517516D01*
X45905909Y-34517517D01*
X45899500Y-34577127D01*
X45899500Y-34577129D01*
X45899500Y-34577133D01*
X45899500Y-35222870D01*
X45899501Y-35222879D01*
X45906367Y-35286751D01*
X45906367Y-35313257D01*
X45905909Y-35317516D01*
X45905909Y-35317517D01*
X45899500Y-35377127D01*
X45899500Y-35377129D01*
X45899500Y-35377133D01*
X45899500Y-36022870D01*
X45899501Y-36022879D01*
X45906367Y-36086751D01*
X45906367Y-36113257D01*
X45905909Y-36117516D01*
X45905909Y-36117517D01*
X45899500Y-36177127D01*
X45899500Y-36177129D01*
X45899500Y-36177133D01*
X45899500Y-36822870D01*
X45899501Y-36822879D01*
X45906367Y-36886751D01*
X45906367Y-36913257D01*
X45905909Y-36917516D01*
X45905909Y-36917517D01*
X45899500Y-36977127D01*
X45899500Y-36977129D01*
X45899500Y-36977133D01*
X45899500Y-37622870D01*
X45899501Y-37622876D01*
X45905908Y-37682483D01*
X45956203Y-37817329D01*
X45975266Y-37842794D01*
X45983004Y-37863542D01*
X45994977Y-37882171D01*
X45998128Y-37904086D01*
X45999684Y-37908258D01*
X46000000Y-37917106D01*
X46000000Y-38075500D01*
X45980315Y-38142539D01*
X45927511Y-38188294D01*
X45876000Y-38199500D01*
X45474500Y-38199500D01*
X45407461Y-38179815D01*
X45361706Y-38127011D01*
X45350500Y-38075500D01*
X45350500Y-32124000D01*
X45370185Y-32056961D01*
X45422989Y-32011206D01*
X45474500Y-32000000D01*
X45780498Y-32000000D01*
X45847537Y-32019685D01*
G37*
%TD.AperFunction*%
%TD*%
%TA.AperFunction,Conductor*%
%TO.N,GND*%
G36*
X62237500Y-53223500D02*
G01*
X62217815Y-53290539D01*
X62165011Y-53336294D01*
X62113500Y-53347500D01*
X53931239Y-53347500D01*
X53864200Y-53327815D01*
X53818445Y-53275011D01*
X53808501Y-53205853D01*
X53837526Y-53142297D01*
X53883787Y-53108939D01*
X53935681Y-53087443D01*
X53959691Y-53077499D01*
X54077698Y-52998649D01*
X54178055Y-52898292D01*
X55804649Y-51271698D01*
X55815075Y-51256094D01*
X55874657Y-51166924D01*
X55928269Y-51122120D01*
X55997594Y-51113413D01*
X56052070Y-51136550D01*
X56107910Y-51178352D01*
X56107913Y-51178354D01*
X56242620Y-51228596D01*
X56242627Y-51228598D01*
X56302155Y-51234999D01*
X56302172Y-51235000D01*
X56750000Y-51235000D01*
X57250000Y-51235000D01*
X57697828Y-51235000D01*
X57697844Y-51234999D01*
X57757372Y-51228598D01*
X57757379Y-51228596D01*
X57892086Y-51178354D01*
X57892093Y-51178350D01*
X58007187Y-51092190D01*
X58007190Y-51092187D01*
X58093350Y-50977093D01*
X58093354Y-50977086D01*
X58143596Y-50842379D01*
X58143598Y-50842372D01*
X58149999Y-50782844D01*
X58150000Y-50782827D01*
X58150000Y-50210000D01*
X57250000Y-50210000D01*
X57250000Y-51235000D01*
X56750000Y-51235000D01*
X56750000Y-49710000D01*
X57250000Y-49710000D01*
X58150000Y-49710000D01*
X58150000Y-49137172D01*
X58149999Y-49137155D01*
X58143598Y-49077627D01*
X58143596Y-49077620D01*
X58093354Y-48942913D01*
X58093350Y-48942906D01*
X58007190Y-48827812D01*
X58007187Y-48827809D01*
X57892093Y-48741649D01*
X57892086Y-48741645D01*
X57757379Y-48691403D01*
X57757372Y-48691401D01*
X57697844Y-48685000D01*
X57250000Y-48685000D01*
X57250000Y-49710000D01*
X56750000Y-49710000D01*
X56750000Y-48685000D01*
X56491490Y-48685000D01*
X56424451Y-48665315D01*
X56378696Y-48612511D01*
X56368752Y-48543353D01*
X56397777Y-48479797D01*
X56403795Y-48473333D01*
X58200310Y-46676819D01*
X58261633Y-46643334D01*
X58287991Y-46640500D01*
X58972086Y-46640500D01*
X58972087Y-46640499D01*
X59111284Y-46612812D01*
X59165592Y-46590315D01*
X59165595Y-46590315D01*
X59242400Y-46558502D01*
X59242400Y-46558501D01*
X59242407Y-46558499D01*
X59360414Y-46479649D01*
X59460771Y-46379292D01*
X61123649Y-44716414D01*
X61148498Y-44679225D01*
X61202499Y-44598407D01*
X61218406Y-44560001D01*
X61256812Y-44467284D01*
X61284500Y-44328085D01*
X61284500Y-44186159D01*
X61284500Y-39000000D01*
X62237500Y-39000000D01*
X62237500Y-53223500D01*
G37*
%TD.AperFunction*%
%TA.AperFunction,Conductor*%
G36*
X57386539Y-39019685D02*
G01*
X57432294Y-39072489D01*
X57443500Y-39124000D01*
X57443500Y-40601000D01*
X57423815Y-40668039D01*
X57371011Y-40713794D01*
X57319500Y-40725000D01*
X57250000Y-40725000D01*
X57250000Y-41876000D01*
X57230315Y-41943039D01*
X57177511Y-41988794D01*
X57126000Y-42000000D01*
X57000000Y-42000000D01*
X57000000Y-42126000D01*
X56980315Y-42193039D01*
X56927511Y-42238794D01*
X56876000Y-42250000D01*
X55850000Y-42250000D01*
X55850000Y-42675500D01*
X55830315Y-42742539D01*
X55777511Y-42788294D01*
X55726000Y-42799500D01*
X53774500Y-42799500D01*
X53707461Y-42779815D01*
X53661706Y-42727011D01*
X53650500Y-42675500D01*
X53650499Y-41891518D01*
X53670183Y-41824479D01*
X53686813Y-41803842D01*
X54313500Y-41177155D01*
X55850000Y-41177155D01*
X55850000Y-41750000D01*
X56750000Y-41750000D01*
X56750000Y-40725000D01*
X56302155Y-40725000D01*
X56242627Y-40731401D01*
X56242620Y-40731403D01*
X56107913Y-40781645D01*
X56107906Y-40781649D01*
X55992812Y-40867809D01*
X55992809Y-40867812D01*
X55906649Y-40982906D01*
X55906645Y-40982913D01*
X55856403Y-41117620D01*
X55856401Y-41117627D01*
X55850000Y-41177155D01*
X54313500Y-41177155D01*
X54584266Y-40906389D01*
X54645587Y-40872906D01*
X54659340Y-40870714D01*
X54715297Y-40864999D01*
X54881834Y-40809814D01*
X55031156Y-40717712D01*
X55155212Y-40593656D01*
X55247314Y-40444334D01*
X55302499Y-40277797D01*
X55313000Y-40175009D01*
X55312999Y-39123999D01*
X55332683Y-39056961D01*
X55385487Y-39011206D01*
X55436999Y-39000000D01*
X57319500Y-39000000D01*
X57386539Y-39019685D01*
G37*
%TD.AperFunction*%
%TD*%
M02*
