%TF.GenerationSoftware,KiCad,Pcbnew,9.0.0*%
%TF.CreationDate,2025-04-22T08:41:44+02:00*%
%TF.ProjectId,Jornada_keyboard_USB,4a6f726e-6164-4615-9f6b-6579626f6172,rev?*%
%TF.SameCoordinates,Original*%
%TF.FileFunction,Legend,Top*%
%TF.FilePolarity,Positive*%
%FSLAX46Y46*%
G04 Gerber Fmt 4.6, Leading zero omitted, Abs format (unit mm)*
G04 Created by KiCad (PCBNEW 9.0.0) date 2025-04-22 08:41:44*
%MOMM*%
%LPD*%
G01*
G04 APERTURE LIST*
%ADD10C,0.150000*%
%ADD11C,0.120000*%
G04 APERTURE END LIST*
D10*
X54073809Y-28578628D02*
X54073809Y-29054819D01*
X53740476Y-28054819D02*
X54073809Y-28578628D01*
X54073809Y-28578628D02*
X54407142Y-28054819D01*
X55264285Y-29054819D02*
X54692857Y-29054819D01*
X54978571Y-29054819D02*
X54978571Y-28054819D01*
X54978571Y-28054819D02*
X54883333Y-28197676D01*
X54883333Y-28197676D02*
X54788095Y-28292914D01*
X54788095Y-28292914D02*
X54692857Y-28340533D01*
X33454819Y-37261904D02*
X34264342Y-37261904D01*
X34264342Y-37261904D02*
X34359580Y-37214285D01*
X34359580Y-37214285D02*
X34407200Y-37166666D01*
X34407200Y-37166666D02*
X34454819Y-37071428D01*
X34454819Y-37071428D02*
X34454819Y-36880952D01*
X34454819Y-36880952D02*
X34407200Y-36785714D01*
X34407200Y-36785714D02*
X34359580Y-36738095D01*
X34359580Y-36738095D02*
X34264342Y-36690476D01*
X34264342Y-36690476D02*
X33454819Y-36690476D01*
X34454819Y-35690476D02*
X34454819Y-36261904D01*
X34454819Y-35976190D02*
X33454819Y-35976190D01*
X33454819Y-35976190D02*
X33597676Y-36071428D01*
X33597676Y-36071428D02*
X33692914Y-36166666D01*
X33692914Y-36166666D02*
X33740533Y-36261904D01*
X49333333Y-39954819D02*
X49000000Y-39478628D01*
X48761905Y-39954819D02*
X48761905Y-38954819D01*
X48761905Y-38954819D02*
X49142857Y-38954819D01*
X49142857Y-38954819D02*
X49238095Y-39002438D01*
X49238095Y-39002438D02*
X49285714Y-39050057D01*
X49285714Y-39050057D02*
X49333333Y-39145295D01*
X49333333Y-39145295D02*
X49333333Y-39288152D01*
X49333333Y-39288152D02*
X49285714Y-39383390D01*
X49285714Y-39383390D02*
X49238095Y-39431009D01*
X49238095Y-39431009D02*
X49142857Y-39478628D01*
X49142857Y-39478628D02*
X48761905Y-39478628D01*
X50190476Y-39288152D02*
X50190476Y-39954819D01*
X49952381Y-38907200D02*
X49714286Y-39621485D01*
X49714286Y-39621485D02*
X50333333Y-39621485D01*
X48434666Y-47384619D02*
X48434666Y-48098904D01*
X48434666Y-48098904D02*
X48387047Y-48241761D01*
X48387047Y-48241761D02*
X48291809Y-48337000D01*
X48291809Y-48337000D02*
X48148952Y-48384619D01*
X48148952Y-48384619D02*
X48053714Y-48384619D01*
X49053714Y-47813190D02*
X48958476Y-47765571D01*
X48958476Y-47765571D02*
X48910857Y-47717952D01*
X48910857Y-47717952D02*
X48863238Y-47622714D01*
X48863238Y-47622714D02*
X48863238Y-47575095D01*
X48863238Y-47575095D02*
X48910857Y-47479857D01*
X48910857Y-47479857D02*
X48958476Y-47432238D01*
X48958476Y-47432238D02*
X49053714Y-47384619D01*
X49053714Y-47384619D02*
X49244190Y-47384619D01*
X49244190Y-47384619D02*
X49339428Y-47432238D01*
X49339428Y-47432238D02*
X49387047Y-47479857D01*
X49387047Y-47479857D02*
X49434666Y-47575095D01*
X49434666Y-47575095D02*
X49434666Y-47622714D01*
X49434666Y-47622714D02*
X49387047Y-47717952D01*
X49387047Y-47717952D02*
X49339428Y-47765571D01*
X49339428Y-47765571D02*
X49244190Y-47813190D01*
X49244190Y-47813190D02*
X49053714Y-47813190D01*
X49053714Y-47813190D02*
X48958476Y-47860809D01*
X48958476Y-47860809D02*
X48910857Y-47908428D01*
X48910857Y-47908428D02*
X48863238Y-48003666D01*
X48863238Y-48003666D02*
X48863238Y-48194142D01*
X48863238Y-48194142D02*
X48910857Y-48289380D01*
X48910857Y-48289380D02*
X48958476Y-48337000D01*
X48958476Y-48337000D02*
X49053714Y-48384619D01*
X49053714Y-48384619D02*
X49244190Y-48384619D01*
X49244190Y-48384619D02*
X49339428Y-48337000D01*
X49339428Y-48337000D02*
X49387047Y-48289380D01*
X49387047Y-48289380D02*
X49434666Y-48194142D01*
X49434666Y-48194142D02*
X49434666Y-48003666D01*
X49434666Y-48003666D02*
X49387047Y-47908428D01*
X49387047Y-47908428D02*
X49339428Y-47860809D01*
X49339428Y-47860809D02*
X49244190Y-47813190D01*
X37369819Y-48746166D02*
X36893628Y-49079499D01*
X37369819Y-49317594D02*
X36369819Y-49317594D01*
X36369819Y-49317594D02*
X36369819Y-48936642D01*
X36369819Y-48936642D02*
X36417438Y-48841404D01*
X36417438Y-48841404D02*
X36465057Y-48793785D01*
X36465057Y-48793785D02*
X36560295Y-48746166D01*
X36560295Y-48746166D02*
X36703152Y-48746166D01*
X36703152Y-48746166D02*
X36798390Y-48793785D01*
X36798390Y-48793785D02*
X36846009Y-48841404D01*
X36846009Y-48841404D02*
X36893628Y-48936642D01*
X36893628Y-48936642D02*
X36893628Y-49317594D01*
X36369819Y-48412832D02*
X36369819Y-47746166D01*
X36369819Y-47746166D02*
X37369819Y-48174737D01*
X35135333Y-49406819D02*
X34802000Y-48930628D01*
X34563905Y-49406819D02*
X34563905Y-48406819D01*
X34563905Y-48406819D02*
X34944857Y-48406819D01*
X34944857Y-48406819D02*
X35040095Y-48454438D01*
X35040095Y-48454438D02*
X35087714Y-48502057D01*
X35087714Y-48502057D02*
X35135333Y-48597295D01*
X35135333Y-48597295D02*
X35135333Y-48740152D01*
X35135333Y-48740152D02*
X35087714Y-48835390D01*
X35087714Y-48835390D02*
X35040095Y-48883009D01*
X35040095Y-48883009D02*
X34944857Y-48930628D01*
X34944857Y-48930628D02*
X34563905Y-48930628D01*
X36087714Y-49406819D02*
X35516286Y-49406819D01*
X35802000Y-49406819D02*
X35802000Y-48406819D01*
X35802000Y-48406819D02*
X35706762Y-48549676D01*
X35706762Y-48549676D02*
X35611524Y-48644914D01*
X35611524Y-48644914D02*
X35516286Y-48692533D01*
X31513142Y-38368580D02*
X31465523Y-38416200D01*
X31465523Y-38416200D02*
X31322666Y-38463819D01*
X31322666Y-38463819D02*
X31227428Y-38463819D01*
X31227428Y-38463819D02*
X31084571Y-38416200D01*
X31084571Y-38416200D02*
X30989333Y-38320961D01*
X30989333Y-38320961D02*
X30941714Y-38225723D01*
X30941714Y-38225723D02*
X30894095Y-38035247D01*
X30894095Y-38035247D02*
X30894095Y-37892390D01*
X30894095Y-37892390D02*
X30941714Y-37701914D01*
X30941714Y-37701914D02*
X30989333Y-37606676D01*
X30989333Y-37606676D02*
X31084571Y-37511438D01*
X31084571Y-37511438D02*
X31227428Y-37463819D01*
X31227428Y-37463819D02*
X31322666Y-37463819D01*
X31322666Y-37463819D02*
X31465523Y-37511438D01*
X31465523Y-37511438D02*
X31513142Y-37559057D01*
X32465523Y-38463819D02*
X31894095Y-38463819D01*
X32179809Y-38463819D02*
X32179809Y-37463819D01*
X32179809Y-37463819D02*
X32084571Y-37606676D01*
X32084571Y-37606676D02*
X31989333Y-37701914D01*
X31989333Y-37701914D02*
X31894095Y-37749533D01*
X33417904Y-38463819D02*
X32846476Y-38463819D01*
X33132190Y-38463819D02*
X33132190Y-37463819D01*
X33132190Y-37463819D02*
X33036952Y-37606676D01*
X33036952Y-37606676D02*
X32941714Y-37701914D01*
X32941714Y-37701914D02*
X32846476Y-37749533D01*
X35342533Y-47249019D02*
X35009200Y-46772828D01*
X34771105Y-47249019D02*
X34771105Y-46249019D01*
X34771105Y-46249019D02*
X35152057Y-46249019D01*
X35152057Y-46249019D02*
X35247295Y-46296638D01*
X35247295Y-46296638D02*
X35294914Y-46344257D01*
X35294914Y-46344257D02*
X35342533Y-46439495D01*
X35342533Y-46439495D02*
X35342533Y-46582352D01*
X35342533Y-46582352D02*
X35294914Y-46677590D01*
X35294914Y-46677590D02*
X35247295Y-46725209D01*
X35247295Y-46725209D02*
X35152057Y-46772828D01*
X35152057Y-46772828D02*
X34771105Y-46772828D01*
X35723486Y-46344257D02*
X35771105Y-46296638D01*
X35771105Y-46296638D02*
X35866343Y-46249019D01*
X35866343Y-46249019D02*
X36104438Y-46249019D01*
X36104438Y-46249019D02*
X36199676Y-46296638D01*
X36199676Y-46296638D02*
X36247295Y-46344257D01*
X36247295Y-46344257D02*
X36294914Y-46439495D01*
X36294914Y-46439495D02*
X36294914Y-46534733D01*
X36294914Y-46534733D02*
X36247295Y-46677590D01*
X36247295Y-46677590D02*
X35675867Y-47249019D01*
X35675867Y-47249019D02*
X36294914Y-47249019D01*
X41983066Y-26683619D02*
X41983066Y-27397904D01*
X41983066Y-27397904D02*
X41935447Y-27540761D01*
X41935447Y-27540761D02*
X41840209Y-27636000D01*
X41840209Y-27636000D02*
X41697352Y-27683619D01*
X41697352Y-27683619D02*
X41602114Y-27683619D01*
X42364019Y-26683619D02*
X42983066Y-26683619D01*
X42983066Y-26683619D02*
X42649733Y-27064571D01*
X42649733Y-27064571D02*
X42792590Y-27064571D01*
X42792590Y-27064571D02*
X42887828Y-27112190D01*
X42887828Y-27112190D02*
X42935447Y-27159809D01*
X42935447Y-27159809D02*
X42983066Y-27255047D01*
X42983066Y-27255047D02*
X42983066Y-27493142D01*
X42983066Y-27493142D02*
X42935447Y-27588380D01*
X42935447Y-27588380D02*
X42887828Y-27636000D01*
X42887828Y-27636000D02*
X42792590Y-27683619D01*
X42792590Y-27683619D02*
X42506876Y-27683619D01*
X42506876Y-27683619D02*
X42411638Y-27636000D01*
X42411638Y-27636000D02*
X42364019Y-27588380D01*
X52608333Y-35699580D02*
X52560714Y-35747200D01*
X52560714Y-35747200D02*
X52417857Y-35794819D01*
X52417857Y-35794819D02*
X52322619Y-35794819D01*
X52322619Y-35794819D02*
X52179762Y-35747200D01*
X52179762Y-35747200D02*
X52084524Y-35651961D01*
X52084524Y-35651961D02*
X52036905Y-35556723D01*
X52036905Y-35556723D02*
X51989286Y-35366247D01*
X51989286Y-35366247D02*
X51989286Y-35223390D01*
X51989286Y-35223390D02*
X52036905Y-35032914D01*
X52036905Y-35032914D02*
X52084524Y-34937676D01*
X52084524Y-34937676D02*
X52179762Y-34842438D01*
X52179762Y-34842438D02*
X52322619Y-34794819D01*
X52322619Y-34794819D02*
X52417857Y-34794819D01*
X52417857Y-34794819D02*
X52560714Y-34842438D01*
X52560714Y-34842438D02*
X52608333Y-34890057D01*
X52989286Y-34890057D02*
X53036905Y-34842438D01*
X53036905Y-34842438D02*
X53132143Y-34794819D01*
X53132143Y-34794819D02*
X53370238Y-34794819D01*
X53370238Y-34794819D02*
X53465476Y-34842438D01*
X53465476Y-34842438D02*
X53513095Y-34890057D01*
X53513095Y-34890057D02*
X53560714Y-34985295D01*
X53560714Y-34985295D02*
X53560714Y-35080533D01*
X53560714Y-35080533D02*
X53513095Y-35223390D01*
X53513095Y-35223390D02*
X52941667Y-35794819D01*
X52941667Y-35794819D02*
X53560714Y-35794819D01*
X38981142Y-45876380D02*
X38933523Y-45924000D01*
X38933523Y-45924000D02*
X38790666Y-45971619D01*
X38790666Y-45971619D02*
X38695428Y-45971619D01*
X38695428Y-45971619D02*
X38552571Y-45924000D01*
X38552571Y-45924000D02*
X38457333Y-45828761D01*
X38457333Y-45828761D02*
X38409714Y-45733523D01*
X38409714Y-45733523D02*
X38362095Y-45543047D01*
X38362095Y-45543047D02*
X38362095Y-45400190D01*
X38362095Y-45400190D02*
X38409714Y-45209714D01*
X38409714Y-45209714D02*
X38457333Y-45114476D01*
X38457333Y-45114476D02*
X38552571Y-45019238D01*
X38552571Y-45019238D02*
X38695428Y-44971619D01*
X38695428Y-44971619D02*
X38790666Y-44971619D01*
X38790666Y-44971619D02*
X38933523Y-45019238D01*
X38933523Y-45019238D02*
X38981142Y-45066857D01*
X39933523Y-45971619D02*
X39362095Y-45971619D01*
X39647809Y-45971619D02*
X39647809Y-44971619D01*
X39647809Y-44971619D02*
X39552571Y-45114476D01*
X39552571Y-45114476D02*
X39457333Y-45209714D01*
X39457333Y-45209714D02*
X39362095Y-45257333D01*
X40314476Y-45066857D02*
X40362095Y-45019238D01*
X40362095Y-45019238D02*
X40457333Y-44971619D01*
X40457333Y-44971619D02*
X40695428Y-44971619D01*
X40695428Y-44971619D02*
X40790666Y-45019238D01*
X40790666Y-45019238D02*
X40838285Y-45066857D01*
X40838285Y-45066857D02*
X40885904Y-45162095D01*
X40885904Y-45162095D02*
X40885904Y-45257333D01*
X40885904Y-45257333D02*
X40838285Y-45400190D01*
X40838285Y-45400190D02*
X40266857Y-45971619D01*
X40266857Y-45971619D02*
X40885904Y-45971619D01*
X29886819Y-27897544D02*
X28886819Y-27897544D01*
X28886819Y-27897544D02*
X28886819Y-27659449D01*
X28886819Y-27659449D02*
X28934438Y-27516592D01*
X28934438Y-27516592D02*
X29029676Y-27421354D01*
X29029676Y-27421354D02*
X29124914Y-27373735D01*
X29124914Y-27373735D02*
X29315390Y-27326116D01*
X29315390Y-27326116D02*
X29458247Y-27326116D01*
X29458247Y-27326116D02*
X29648723Y-27373735D01*
X29648723Y-27373735D02*
X29743961Y-27421354D01*
X29743961Y-27421354D02*
X29839200Y-27516592D01*
X29839200Y-27516592D02*
X29886819Y-27659449D01*
X29886819Y-27659449D02*
X29886819Y-27897544D01*
X29886819Y-26373735D02*
X29886819Y-26945163D01*
X29886819Y-26659449D02*
X28886819Y-26659449D01*
X28886819Y-26659449D02*
X29029676Y-26754687D01*
X29029676Y-26754687D02*
X29124914Y-26849925D01*
X29124914Y-26849925D02*
X29172533Y-26945163D01*
X26288276Y-33171666D02*
X25983514Y-33385000D01*
X26288276Y-33537381D02*
X25648276Y-33537381D01*
X25648276Y-33537381D02*
X25648276Y-33293571D01*
X25648276Y-33293571D02*
X25678752Y-33232619D01*
X25678752Y-33232619D02*
X25709228Y-33202142D01*
X25709228Y-33202142D02*
X25770180Y-33171666D01*
X25770180Y-33171666D02*
X25861609Y-33171666D01*
X25861609Y-33171666D02*
X25922561Y-33202142D01*
X25922561Y-33202142D02*
X25953038Y-33232619D01*
X25953038Y-33232619D02*
X25983514Y-33293571D01*
X25983514Y-33293571D02*
X25983514Y-33537381D01*
X25648276Y-32592619D02*
X25648276Y-32897381D01*
X25648276Y-32897381D02*
X25953038Y-32927857D01*
X25953038Y-32927857D02*
X25922561Y-32897381D01*
X25922561Y-32897381D02*
X25892085Y-32836428D01*
X25892085Y-32836428D02*
X25892085Y-32684047D01*
X25892085Y-32684047D02*
X25922561Y-32623095D01*
X25922561Y-32623095D02*
X25953038Y-32592619D01*
X25953038Y-32592619D02*
X26013990Y-32562142D01*
X26013990Y-32562142D02*
X26166371Y-32562142D01*
X26166371Y-32562142D02*
X26227323Y-32592619D01*
X26227323Y-32592619D02*
X26257800Y-32623095D01*
X26257800Y-32623095D02*
X26288276Y-32684047D01*
X26288276Y-32684047D02*
X26288276Y-32836428D01*
X26288276Y-32836428D02*
X26257800Y-32897381D01*
X26257800Y-32897381D02*
X26227323Y-32927857D01*
X49831666Y-51956619D02*
X49831666Y-52670904D01*
X49831666Y-52670904D02*
X49784047Y-52813761D01*
X49784047Y-52813761D02*
X49688809Y-52909000D01*
X49688809Y-52909000D02*
X49545952Y-52956619D01*
X49545952Y-52956619D02*
X49450714Y-52956619D01*
X50736428Y-52289952D02*
X50736428Y-52956619D01*
X50498333Y-51909000D02*
X50260238Y-52623285D01*
X50260238Y-52623285D02*
X50879285Y-52623285D01*
X34732933Y-45774780D02*
X34685314Y-45822400D01*
X34685314Y-45822400D02*
X34542457Y-45870019D01*
X34542457Y-45870019D02*
X34447219Y-45870019D01*
X34447219Y-45870019D02*
X34304362Y-45822400D01*
X34304362Y-45822400D02*
X34209124Y-45727161D01*
X34209124Y-45727161D02*
X34161505Y-45631923D01*
X34161505Y-45631923D02*
X34113886Y-45441447D01*
X34113886Y-45441447D02*
X34113886Y-45298590D01*
X34113886Y-45298590D02*
X34161505Y-45108114D01*
X34161505Y-45108114D02*
X34209124Y-45012876D01*
X34209124Y-45012876D02*
X34304362Y-44917638D01*
X34304362Y-44917638D02*
X34447219Y-44870019D01*
X34447219Y-44870019D02*
X34542457Y-44870019D01*
X34542457Y-44870019D02*
X34685314Y-44917638D01*
X34685314Y-44917638D02*
X34732933Y-44965257D01*
X35590076Y-45203352D02*
X35590076Y-45870019D01*
X35351981Y-44822400D02*
X35113886Y-45536685D01*
X35113886Y-45536685D02*
X35732933Y-45536685D01*
X44142066Y-51956619D02*
X44142066Y-52670904D01*
X44142066Y-52670904D02*
X44094447Y-52813761D01*
X44094447Y-52813761D02*
X43999209Y-52909000D01*
X43999209Y-52909000D02*
X43856352Y-52956619D01*
X43856352Y-52956619D02*
X43761114Y-52956619D01*
X44523019Y-51956619D02*
X45189685Y-51956619D01*
X45189685Y-51956619D02*
X44761114Y-52956619D01*
X45640666Y-47333819D02*
X45640666Y-48048104D01*
X45640666Y-48048104D02*
X45593047Y-48190961D01*
X45593047Y-48190961D02*
X45497809Y-48286200D01*
X45497809Y-48286200D02*
X45354952Y-48333819D01*
X45354952Y-48333819D02*
X45259714Y-48333819D01*
X46545428Y-47333819D02*
X46354952Y-47333819D01*
X46354952Y-47333819D02*
X46259714Y-47381438D01*
X46259714Y-47381438D02*
X46212095Y-47429057D01*
X46212095Y-47429057D02*
X46116857Y-47571914D01*
X46116857Y-47571914D02*
X46069238Y-47762390D01*
X46069238Y-47762390D02*
X46069238Y-48143342D01*
X46069238Y-48143342D02*
X46116857Y-48238580D01*
X46116857Y-48238580D02*
X46164476Y-48286200D01*
X46164476Y-48286200D02*
X46259714Y-48333819D01*
X46259714Y-48333819D02*
X46450190Y-48333819D01*
X46450190Y-48333819D02*
X46545428Y-48286200D01*
X46545428Y-48286200D02*
X46593047Y-48238580D01*
X46593047Y-48238580D02*
X46640666Y-48143342D01*
X46640666Y-48143342D02*
X46640666Y-47905247D01*
X46640666Y-47905247D02*
X46593047Y-47810009D01*
X46593047Y-47810009D02*
X46545428Y-47762390D01*
X46545428Y-47762390D02*
X46450190Y-47714771D01*
X46450190Y-47714771D02*
X46259714Y-47714771D01*
X46259714Y-47714771D02*
X46164476Y-47762390D01*
X46164476Y-47762390D02*
X46116857Y-47810009D01*
X46116857Y-47810009D02*
X46069238Y-47905247D01*
X35283333Y-45404819D02*
X34950000Y-44928628D01*
X34711905Y-45404819D02*
X34711905Y-44404819D01*
X34711905Y-44404819D02*
X35092857Y-44404819D01*
X35092857Y-44404819D02*
X35188095Y-44452438D01*
X35188095Y-44452438D02*
X35235714Y-44500057D01*
X35235714Y-44500057D02*
X35283333Y-44595295D01*
X35283333Y-44595295D02*
X35283333Y-44738152D01*
X35283333Y-44738152D02*
X35235714Y-44833390D01*
X35235714Y-44833390D02*
X35188095Y-44881009D01*
X35188095Y-44881009D02*
X35092857Y-44928628D01*
X35092857Y-44928628D02*
X34711905Y-44928628D01*
X35616667Y-44404819D02*
X36235714Y-44404819D01*
X36235714Y-44404819D02*
X35902381Y-44785771D01*
X35902381Y-44785771D02*
X36045238Y-44785771D01*
X36045238Y-44785771D02*
X36140476Y-44833390D01*
X36140476Y-44833390D02*
X36188095Y-44881009D01*
X36188095Y-44881009D02*
X36235714Y-44976247D01*
X36235714Y-44976247D02*
X36235714Y-45214342D01*
X36235714Y-45214342D02*
X36188095Y-45309580D01*
X36188095Y-45309580D02*
X36140476Y-45357200D01*
X36140476Y-45357200D02*
X36045238Y-45404819D01*
X36045238Y-45404819D02*
X35759524Y-45404819D01*
X35759524Y-45404819D02*
X35664286Y-45357200D01*
X35664286Y-45357200D02*
X35616667Y-45309580D01*
X59207200Y-47313332D02*
X59254819Y-47170475D01*
X59254819Y-47170475D02*
X59254819Y-46932380D01*
X59254819Y-46932380D02*
X59207200Y-46837142D01*
X59207200Y-46837142D02*
X59159580Y-46789523D01*
X59159580Y-46789523D02*
X59064342Y-46741904D01*
X59064342Y-46741904D02*
X58969104Y-46741904D01*
X58969104Y-46741904D02*
X58873866Y-46789523D01*
X58873866Y-46789523D02*
X58826247Y-46837142D01*
X58826247Y-46837142D02*
X58778628Y-46932380D01*
X58778628Y-46932380D02*
X58731009Y-47122856D01*
X58731009Y-47122856D02*
X58683390Y-47218094D01*
X58683390Y-47218094D02*
X58635771Y-47265713D01*
X58635771Y-47265713D02*
X58540533Y-47313332D01*
X58540533Y-47313332D02*
X58445295Y-47313332D01*
X58445295Y-47313332D02*
X58350057Y-47265713D01*
X58350057Y-47265713D02*
X58302438Y-47218094D01*
X58302438Y-47218094D02*
X58254819Y-47122856D01*
X58254819Y-47122856D02*
X58254819Y-46884761D01*
X58254819Y-46884761D02*
X58302438Y-46741904D01*
X58254819Y-46408570D02*
X59254819Y-46170475D01*
X59254819Y-46170475D02*
X58540533Y-45979999D01*
X58540533Y-45979999D02*
X59254819Y-45789523D01*
X59254819Y-45789523D02*
X58254819Y-45551428D01*
X59254819Y-44646666D02*
X59254819Y-45218094D01*
X59254819Y-44932380D02*
X58254819Y-44932380D01*
X58254819Y-44932380D02*
X58397676Y-45027618D01*
X58397676Y-45027618D02*
X58492914Y-45122856D01*
X58492914Y-45122856D02*
X58540533Y-45218094D01*
X42846666Y-47333819D02*
X42846666Y-48048104D01*
X42846666Y-48048104D02*
X42799047Y-48190961D01*
X42799047Y-48190961D02*
X42703809Y-48286200D01*
X42703809Y-48286200D02*
X42560952Y-48333819D01*
X42560952Y-48333819D02*
X42465714Y-48333819D01*
X43799047Y-47333819D02*
X43322857Y-47333819D01*
X43322857Y-47333819D02*
X43275238Y-47810009D01*
X43275238Y-47810009D02*
X43322857Y-47762390D01*
X43322857Y-47762390D02*
X43418095Y-47714771D01*
X43418095Y-47714771D02*
X43656190Y-47714771D01*
X43656190Y-47714771D02*
X43751428Y-47762390D01*
X43751428Y-47762390D02*
X43799047Y-47810009D01*
X43799047Y-47810009D02*
X43846666Y-47905247D01*
X43846666Y-47905247D02*
X43846666Y-48143342D01*
X43846666Y-48143342D02*
X43799047Y-48238580D01*
X43799047Y-48238580D02*
X43751428Y-48286200D01*
X43751428Y-48286200D02*
X43656190Y-48333819D01*
X43656190Y-48333819D02*
X43418095Y-48333819D01*
X43418095Y-48333819D02*
X43322857Y-48286200D01*
X43322857Y-48286200D02*
X43275238Y-48238580D01*
X28582133Y-49413180D02*
X28534514Y-49460800D01*
X28534514Y-49460800D02*
X28391657Y-49508419D01*
X28391657Y-49508419D02*
X28296419Y-49508419D01*
X28296419Y-49508419D02*
X28153562Y-49460800D01*
X28153562Y-49460800D02*
X28058324Y-49365561D01*
X28058324Y-49365561D02*
X28010705Y-49270323D01*
X28010705Y-49270323D02*
X27963086Y-49079847D01*
X27963086Y-49079847D02*
X27963086Y-48936990D01*
X27963086Y-48936990D02*
X28010705Y-48746514D01*
X28010705Y-48746514D02*
X28058324Y-48651276D01*
X28058324Y-48651276D02*
X28153562Y-48556038D01*
X28153562Y-48556038D02*
X28296419Y-48508419D01*
X28296419Y-48508419D02*
X28391657Y-48508419D01*
X28391657Y-48508419D02*
X28534514Y-48556038D01*
X28534514Y-48556038D02*
X28582133Y-48603657D01*
X29534514Y-49508419D02*
X28963086Y-49508419D01*
X29248800Y-49508419D02*
X29248800Y-48508419D01*
X29248800Y-48508419D02*
X29153562Y-48651276D01*
X29153562Y-48651276D02*
X29058324Y-48746514D01*
X29058324Y-48746514D02*
X28963086Y-48794133D01*
X55949580Y-36646666D02*
X55997200Y-36694285D01*
X55997200Y-36694285D02*
X56044819Y-36837142D01*
X56044819Y-36837142D02*
X56044819Y-36932380D01*
X56044819Y-36932380D02*
X55997200Y-37075237D01*
X55997200Y-37075237D02*
X55901961Y-37170475D01*
X55901961Y-37170475D02*
X55806723Y-37218094D01*
X55806723Y-37218094D02*
X55616247Y-37265713D01*
X55616247Y-37265713D02*
X55473390Y-37265713D01*
X55473390Y-37265713D02*
X55282914Y-37218094D01*
X55282914Y-37218094D02*
X55187676Y-37170475D01*
X55187676Y-37170475D02*
X55092438Y-37075237D01*
X55092438Y-37075237D02*
X55044819Y-36932380D01*
X55044819Y-36932380D02*
X55044819Y-36837142D01*
X55044819Y-36837142D02*
X55092438Y-36694285D01*
X55092438Y-36694285D02*
X55140057Y-36646666D01*
X55044819Y-36313332D02*
X55044819Y-35694285D01*
X55044819Y-35694285D02*
X55425771Y-36027618D01*
X55425771Y-36027618D02*
X55425771Y-35884761D01*
X55425771Y-35884761D02*
X55473390Y-35789523D01*
X55473390Y-35789523D02*
X55521009Y-35741904D01*
X55521009Y-35741904D02*
X55616247Y-35694285D01*
X55616247Y-35694285D02*
X55854342Y-35694285D01*
X55854342Y-35694285D02*
X55949580Y-35741904D01*
X55949580Y-35741904D02*
X55997200Y-35789523D01*
X55997200Y-35789523D02*
X56044819Y-35884761D01*
X56044819Y-35884761D02*
X56044819Y-36170475D01*
X56044819Y-36170475D02*
X55997200Y-36265713D01*
X55997200Y-36265713D02*
X55949580Y-36313332D01*
X47037666Y-51956619D02*
X47037666Y-52670904D01*
X47037666Y-52670904D02*
X46990047Y-52813761D01*
X46990047Y-52813761D02*
X46894809Y-52909000D01*
X46894809Y-52909000D02*
X46751952Y-52956619D01*
X46751952Y-52956619D02*
X46656714Y-52956619D01*
X48037666Y-52956619D02*
X47466238Y-52956619D01*
X47751952Y-52956619D02*
X47751952Y-51956619D01*
X47751952Y-51956619D02*
X47656714Y-52099476D01*
X47656714Y-52099476D02*
X47561476Y-52194714D01*
X47561476Y-52194714D02*
X47466238Y-52242333D01*
X25933009Y-37036333D02*
X25933009Y-37369666D01*
X26456819Y-37369666D02*
X25456819Y-37369666D01*
X25456819Y-37369666D02*
X25456819Y-36893476D01*
X25552057Y-36560142D02*
X25504438Y-36512523D01*
X25504438Y-36512523D02*
X25456819Y-36417285D01*
X25456819Y-36417285D02*
X25456819Y-36179190D01*
X25456819Y-36179190D02*
X25504438Y-36083952D01*
X25504438Y-36083952D02*
X25552057Y-36036333D01*
X25552057Y-36036333D02*
X25647295Y-35988714D01*
X25647295Y-35988714D02*
X25742533Y-35988714D01*
X25742533Y-35988714D02*
X25885390Y-36036333D01*
X25885390Y-36036333D02*
X26456819Y-36607761D01*
X26456819Y-36607761D02*
X26456819Y-35988714D01*
D11*
%TO.C,Y1*%
X51850000Y-29400000D02*
X51850000Y-33900000D01*
X51850000Y-33900000D02*
X57250000Y-33900000D01*
D10*
%TO.C,U1*%
X36275000Y-31325000D02*
X36275000Y-32000000D01*
X36275000Y-31325000D02*
X36950000Y-31325000D01*
X36275000Y-41675000D02*
X36275000Y-41000000D01*
X36275000Y-41675000D02*
X36890000Y-41675000D01*
X46625000Y-31325000D02*
X45950000Y-31325000D01*
X46625000Y-31325000D02*
X46625000Y-32000000D01*
X46625000Y-41675000D02*
X45950000Y-41675000D01*
X46625000Y-41675000D02*
X46625000Y-41000000D01*
D11*
X36910000Y-42360000D02*
X36440000Y-42700000D01*
X36440000Y-42020000D01*
X36910000Y-42360000D01*
G36*
X36910000Y-42360000D02*
G01*
X36440000Y-42700000D01*
X36440000Y-42020000D01*
X36910000Y-42360000D01*
G37*
%TO.C,R4*%
X52060436Y-38590000D02*
X53514564Y-38590000D01*
X52060436Y-40410000D02*
X53514564Y-40410000D01*
%TO.C,R6*%
X36426914Y-27561250D02*
X34972786Y-27561250D01*
X36426914Y-29381250D02*
X34972786Y-29381250D01*
%TO.C,R7*%
X37825000Y-49306564D02*
X37825000Y-47852436D01*
X39645000Y-49306564D02*
X39645000Y-47852436D01*
%TO.C,R1*%
X32743564Y-51374000D02*
X31289436Y-51374000D01*
X32743564Y-53194000D02*
X31289436Y-53194000D01*
%TO.C,C11*%
X31419748Y-39349000D02*
X32842252Y-39349000D01*
X31419748Y-41169000D02*
X32842252Y-41169000D01*
%TO.C,R2*%
X31260436Y-45953000D02*
X32714564Y-45953000D01*
X31260436Y-47773000D02*
X32714564Y-47773000D01*
%TO.C,J2*%
X21740000Y-42640000D02*
X21740000Y-50360000D01*
X21740000Y-42640000D02*
X23350000Y-42640000D01*
X21740000Y-50360000D02*
X23350000Y-50360000D01*
X25850000Y-42640000D02*
X27560000Y-42640000D01*
X25850000Y-50360000D02*
X27560000Y-50360000D01*
X27560000Y-42640000D02*
X27560000Y-44700000D01*
X27560000Y-44700000D02*
X28150000Y-44700000D01*
X27560000Y-50360000D02*
X27560000Y-48300000D01*
%TO.C,J3*%
X26614000Y-16610000D02*
X58754000Y-16610000D01*
X26614000Y-17720000D02*
X26614000Y-16610000D01*
X27639000Y-17720000D02*
X26614000Y-17720000D01*
X27639000Y-18260000D02*
X27639000Y-17720000D01*
X30619000Y-22230000D02*
X29794000Y-22230000D01*
X54749000Y-22230000D02*
X54749000Y-24030000D01*
X55574000Y-22230000D02*
X54749000Y-22230000D01*
X57729000Y-17720000D02*
X57729000Y-18260000D01*
X58754000Y-16610000D02*
X58754000Y-17720000D01*
X58754000Y-17720000D02*
X57729000Y-17720000D01*
%TO.C,C2*%
X52667164Y-36140000D02*
X52882836Y-36140000D01*
X52667164Y-36860000D02*
X52882836Y-36860000D01*
%TO.C,C12*%
X40238000Y-47851748D02*
X40238000Y-49274252D01*
X42058000Y-47851748D02*
X42058000Y-49274252D01*
%TO.C,D1*%
X26297000Y-25020000D02*
X26297000Y-28905000D01*
X28567000Y-25020000D02*
X26297000Y-25020000D01*
X28567000Y-28905000D02*
X28567000Y-25020000D01*
%TO.C,C4*%
X35412000Y-47851748D02*
X35412000Y-49274252D01*
X37232000Y-47851748D02*
X37232000Y-49274252D01*
%TO.C,R3*%
X32714564Y-43540000D02*
X31260436Y-43540000D01*
X32714564Y-45360000D02*
X31260436Y-45360000D01*
%TO.C,SW1*%
X51520000Y-42750000D02*
X51520000Y-49210000D01*
X51520000Y-42750000D02*
X51550000Y-42750000D01*
X51520000Y-49210000D02*
X51550000Y-49210000D01*
X56050000Y-42750000D02*
X53450000Y-42750000D01*
X56050000Y-49210000D02*
X53450000Y-49210000D01*
X57950000Y-42750000D02*
X57980000Y-42750000D01*
X57980000Y-42750000D02*
X57980000Y-49210000D01*
X57980000Y-49210000D02*
X57950000Y-49210000D01*
%TO.C,C1*%
X32715252Y-48874000D02*
X31292748Y-48874000D01*
X32715252Y-50694000D02*
X31292748Y-50694000D01*
%TO.C,C3*%
X56390000Y-36587836D02*
X56390000Y-36372164D01*
X57110000Y-36587836D02*
X57110000Y-36372164D01*
%TO.C,F2*%
X26922000Y-36865779D02*
X26922000Y-36540221D01*
X27942000Y-36865779D02*
X27942000Y-36540221D01*
%TD*%
M02*
